<svg width="365" height="108" viewBox="0 0 365 108" fill="none" xmlns="http://www.w3.org/2000/svg">
<mask id="path-1-inside-1_1244_3199" fill="white">
<path d="M50.8353 21.2293C50.8353 20.2434 51.3283 19.7505 52.3141 19.7505H65.8031C66.789 19.7505 67.2819 20.2434 67.2819 21.2293C67.2819 24.7157 67.2458 28.2142 67.1737 31.7247C67.1015 35.2112 67.0655 38.7097 67.0655 42.2202C67.0655 46.5002 67.1136 50.7681 67.2097 55.024C67.3059 59.2799 67.354 63.5478 67.354 67.8278C67.354 68.8136 66.8611 69.3065 65.8753 69.3065H52.242C51.2802 69.3065 50.7993 68.8136 50.7993 67.8278C50.7993 63.5478 50.8353 59.2799 50.9075 55.024C51.0037 50.7681 51.0517 46.5002 51.0517 42.2202C51.0517 38.7097 51.0157 35.2112 50.9435 31.7247C50.8714 28.2142 50.8353 24.7157 50.8353 21.2293Z"/>
<path d="M20.0353 19.7505C23.137 19.7505 26.0585 20.0511 28.7996 20.6522C31.5647 21.2293 34.0052 22.2151 36.1212 23.6097C38.2611 24.9802 39.9322 26.8437 41.1345 29.2001C42.3607 31.5564 42.9739 34.5019 42.9739 38.0365V38.325C42.9498 41.2104 42.4329 43.9515 41.423 46.5483C40.4131 49.1211 38.73 51.3211 36.3736 53.1485C35.9168 53.5092 35.4479 53.8218 34.967 54.0863C34.4861 54.3508 34.0052 54.6393 33.5243 54.9519C33.4762 54.9759 33.4041 55.036 33.3079 55.1322L33.2719 55.2404C33.2719 55.3606 33.5844 55.7934 34.2096 56.5388C34.8588 57.2842 35.6643 58.1859 36.6261 59.2438C37.6119 60.2778 38.6098 61.3357 39.6197 62.4177C40.6295 63.4757 41.5192 64.4134 42.2886 65.231C43.0821 66.0244 43.599 66.5534 43.8395 66.8179C44.0318 67.0343 44.2482 67.2748 44.4887 67.5392C44.7291 67.8037 44.8494 68.1043 44.8494 68.4409C44.8494 68.8737 44.5849 69.1262 44.0559 69.1983C43.5269 69.2705 43.1181 69.3065 42.8296 69.3065H27.6454C27.2126 69.3065 26.8159 69.1021 26.4552 68.6934C26.2148 68.4289 25.794 67.8638 25.1929 66.9982C24.6158 66.1086 23.9425 65.0987 23.1731 63.9686C22.4277 62.8385 21.6944 61.7325 20.973 60.6505C20.2517 59.5684 19.6265 58.6788 19.0975 57.9815C18.5686 57.2602 18.244 56.8995 18.1237 56.8995C17.7631 56.8995 17.5587 57.0438 17.5106 57.3323C17.4625 57.7651 17.4385 58.2219 17.4385 58.7028C17.4385 59.1597 17.4385 59.6045 17.4385 60.0373C17.4385 61.3357 17.4505 62.6462 17.4745 63.9686C17.5226 65.267 17.4866 66.5534 17.3663 67.8278C17.3182 68.3327 17.198 68.7054 17.0057 68.9459C16.8133 69.1863 16.4406 69.3065 15.8876 69.3065H2.29034C1.32855 69.3065 0.847656 68.8016 0.847656 67.7917C0.847656 66.4933 0.895746 65.1829 0.991924 63.8604C1.0881 62.538 1.16024 61.2275 1.20833 59.9291C1.32855 57.2121 1.41271 54.495 1.46079 51.778C1.53293 49.0369 1.569 46.2958 1.569 43.5547C1.569 41.0541 1.54495 38.5414 1.49686 36.0167C1.44877 33.492 1.37664 30.9794 1.28046 28.4787C1.25642 27.2765 1.1963 26.0743 1.10013 24.872C1.02799 23.6457 0.991924 22.4435 0.991924 21.2653C0.991924 20.2555 1.47282 19.7505 2.4346 19.7505H20.0353ZM21.7304 44.4203C23.0529 44.4203 24.0387 44.1198 24.6879 43.5186C25.3371 42.8935 25.7699 42.088 25.9863 41.1022C26.2027 40.1163 26.3109 39.0824 26.3109 38.0004C26.3109 36.4615 25.9382 35.2713 25.1929 34.4298C24.4715 33.5882 23.3174 33.1674 21.7304 33.1674H17.5106C17.5106 35.0429 17.5106 36.9184 17.5106 38.7939C17.5346 40.6694 17.5467 42.5448 17.5467 44.4203H21.7304Z"/>
<path d="M112.584 21.2653C112.584 20.2555 113.065 19.7505 114.027 19.7505H147.425C148.387 19.7505 148.867 20.2555 148.867 21.2653C148.867 22.4435 148.831 23.6337 148.759 24.836C148.711 26.0141 148.663 27.2044 148.615 28.4066C148.591 29.3684 148.567 30.3302 148.543 31.2919C148.543 32.2297 148.519 33.1795 148.471 34.1412C148.447 35.1271 147.954 35.62 146.992 35.62H138.769C138.456 35.62 138.3 35.7763 138.3 36.0889V41.7153C138.3 46.0674 138.348 50.4195 138.444 54.7715C138.54 59.1236 138.588 63.4757 138.588 67.8278C138.588 68.8136 138.095 69.3065 137.11 69.3065H123.476C122.539 69.3065 122.07 68.8136 122.07 67.8278C122.07 63.8604 122.106 59.8931 122.178 55.9257C122.25 51.9583 122.286 47.991 122.286 44.0236V36.0889C122.286 35.7763 122.142 35.62 121.853 35.62H114.46C113.498 35.62 113.005 35.1271 112.981 34.1412C112.933 33.1795 112.909 32.2297 112.909 31.2919C112.909 30.3302 112.885 29.3684 112.837 28.4066C112.813 27.2044 112.764 26.0141 112.692 24.836C112.62 23.6337 112.584 22.4435 112.584 21.2653Z"/>
<path d="M167.966 67.7917C167.966 66.2288 167.99 64.6659 168.039 63.103C168.087 61.5401 168.111 59.9892 168.111 58.4504C168.111 58.234 168.111 57.8012 168.111 57.152C168.111 56.4787 168.087 56.07 168.039 55.9257C167.942 55.541 167.798 55.1563 167.606 54.7715C167.413 54.3868 167.233 54.0021 167.065 53.6174C166.608 52.5354 166.139 51.4654 165.658 50.4074C165.177 49.3254 164.696 48.2554 164.215 47.1975C162.316 42.9416 160.38 38.7097 158.409 34.5019C156.461 30.27 154.453 26.0622 152.385 21.8785C152.289 21.6861 152.205 21.5058 152.133 21.3375C152.061 21.1451 152.025 20.9527 152.025 20.7604C152.025 20.3035 152.205 20.027 152.566 19.9309C152.951 19.8106 153.311 19.7505 153.648 19.7505H170.563C170.972 19.7505 171.273 19.8467 171.465 20.0391C171.657 20.2074 171.826 20.4719 171.97 20.8325C172.258 21.5298 172.487 22.2752 172.655 23.0687C172.847 23.8381 173.04 24.5955 173.232 25.3409C173.593 26.6393 173.954 27.9497 174.314 29.2722C174.675 30.5706 175.036 31.869 175.396 33.1674C175.54 33.6964 175.697 34.2374 175.865 34.7904C176.033 35.3435 176.178 35.8965 176.298 36.4495C176.346 36.5697 176.37 36.6779 176.37 36.7741C176.394 36.8703 176.454 36.9785 176.55 37.0987L176.695 37.1348C176.839 37.1588 176.935 37.0747 176.983 36.8823C177.055 36.69 177.103 36.5457 177.127 36.4495C177.632 34.5981 178.113 32.7466 178.57 30.8952C179.051 29.0438 179.532 27.1923 180.013 25.3409C180.205 24.5955 180.373 23.8381 180.518 23.0687C180.686 22.2752 180.914 21.5298 181.203 20.8325C181.492 20.1112 181.972 19.7505 182.646 19.7505H199.561C199.898 19.7505 200.246 19.8106 200.607 19.9309C200.992 20.0511 201.184 20.3276 201.184 20.7604C201.184 20.9768 201.136 21.1812 201.04 21.3735C200.968 21.5418 200.884 21.7222 200.787 21.9145C198.744 25.9059 196.724 29.9214 194.728 33.9609C192.732 37.9764 190.785 42.0279 188.885 46.1155C188.741 46.4281 188.416 47.1013 187.911 48.1352C187.431 49.1451 186.902 50.2511 186.325 51.4534C185.771 52.6556 185.291 53.7256 184.882 54.6633C184.473 55.6011 184.269 56.1541 184.269 56.3224C184.269 58.2219 184.305 60.1335 184.377 62.0571C184.449 63.9806 184.485 65.9042 184.485 67.8278C184.485 68.8136 183.992 69.3065 183.006 69.3065H169.409C168.447 69.3065 167.966 68.8016 167.966 67.7917Z"/>
<path d="M71.1273 21.2653C71.1273 20.2555 71.6081 19.7505 72.5699 19.7505H105.968C106.93 19.7505 107.411 20.2555 107.411 21.2653C107.411 22.4435 107.375 23.6337 107.302 24.836C107.254 26.0141 107.206 27.2044 107.158 28.4066C107.134 29.3684 107.11 30.3302 107.086 31.2919C107.086 32.2297 107.062 33.1795 107.014 34.1412C106.99 35.1271 106.497 35.62 105.535 35.62H97.3119C96.9993 35.62 96.843 35.7763 96.843 36.0889V41.7153C96.843 46.0674 96.8911 50.4195 96.9873 54.7715C97.0834 59.1236 97.1315 63.4757 97.1315 67.8278C97.1315 68.8136 96.6386 69.3065 95.6528 69.3065H82.0195C81.0817 69.3065 80.6129 68.8136 80.6129 67.8278C80.6129 63.8604 80.6489 59.8931 80.7211 55.9257C80.7932 51.9583 80.8293 47.991 80.8293 44.0236V36.0889C80.8293 35.7763 80.685 35.62 80.3965 35.62H73.0027C72.0409 35.62 71.548 35.1271 71.524 34.1412C71.4759 33.1795 71.4519 32.2297 71.4519 31.2919C71.4519 30.3302 71.4278 29.3684 71.3797 28.4066C71.3557 27.2044 71.3076 26.0141 71.2355 24.836C71.1633 23.6337 71.1273 22.4435 71.1273 21.2653Z"/>
<path d="M243.754 19.498C244.211 19.498 244.992 19.5341 246.098 19.6062C247.228 19.6543 248.418 19.7746 249.669 19.9669C250.943 20.1352 252.025 20.4117 252.915 20.7965C253.828 21.1571 254.285 21.65 254.285 22.2752C254.285 22.5878 254.189 23.249 253.997 24.2589C253.804 25.2688 253.564 26.3989 253.275 27.6492C253.011 28.8995 252.758 30.0657 252.518 31.1477C252.278 32.2056 252.097 32.951 251.977 33.3838C251.881 33.7685 251.761 34.1052 251.616 34.3937C251.472 34.6582 251.159 34.7904 250.679 34.7904C250.51 34.7904 250.354 34.7664 250.21 34.7183C250.065 34.6702 249.921 34.6342 249.777 34.6101C248.719 34.3456 247.673 34.2134 246.639 34.2134C246.158 34.2134 245.617 34.2855 245.016 34.4298C244.439 34.574 244.15 34.9828 244.15 35.656C244.15 36.3774 244.391 37.1228 244.872 37.8922C245.377 38.6616 245.966 39.383 246.639 40.0562C247.312 40.7295 247.913 41.2825 248.442 41.7153C250.15 43.0378 251.532 44.2039 252.59 45.2138C253.672 46.2237 254.466 47.4019 254.971 48.7484C255.5 50.0708 255.764 51.8862 255.764 54.1945V55.024C255.764 58.0296 255.235 60.5062 254.177 62.4538C253.143 64.3774 251.712 65.8802 249.885 66.9622C248.058 68.0442 245.978 68.8016 243.646 69.2344C241.313 69.6672 238.861 69.8836 236.288 69.8836C234.821 69.8836 233.09 69.8115 231.094 69.6672C229.123 69.547 227.463 69.2104 226.117 68.6573C225.804 68.5371 225.552 68.3928 225.36 68.2245C225.191 68.0562 225.107 67.7797 225.107 67.395C225.107 67.2748 225.131 67.1185 225.179 66.9261C225.42 65.6517 225.66 64.3894 225.901 63.1391C226.141 61.8888 226.369 60.6384 226.586 59.3881C226.682 58.787 226.754 58.1859 226.802 57.5848C226.874 56.9596 226.995 56.3585 227.163 55.7814C227.235 55.541 227.355 55.2524 227.524 54.9158C227.716 54.5792 227.968 54.4109 228.281 54.4109C228.473 54.4109 228.654 54.4349 228.822 54.483C229.014 54.5071 229.195 54.5431 229.363 54.5912C230.421 54.8317 231.455 55.012 232.465 55.1322C233.475 55.2524 234.521 55.3125 235.603 55.3125C236.156 55.3125 236.685 55.2404 237.19 55.0961C237.694 54.9519 237.947 54.5191 237.947 53.7977C237.947 53.0764 237.767 52.4031 237.406 51.778C237.093 51.225 236.721 50.696 236.288 50.191C235.879 49.6621 235.446 49.1691 234.989 48.7123C234.412 48.1112 233.799 47.5581 233.15 47.0532C232.501 46.5483 231.852 46.0313 231.202 45.5023C229.159 43.9154 227.86 42.3164 227.307 40.7054C226.754 39.0704 226.454 36.9785 226.405 34.4298V34.1052C226.405 30.4504 227.163 27.565 228.678 25.4491C230.193 23.3091 232.26 21.7823 234.881 20.8686C237.502 19.9549 240.46 19.498 243.754 19.498Z"/>
<path d="M204.286 21.2293C204.286 20.2434 204.779 19.7505 205.765 19.7505H219.254C220.239 19.7505 220.732 20.2434 220.732 21.2293C220.732 24.7157 220.696 28.2142 220.624 31.7247C220.552 35.2112 220.516 38.7097 220.516 42.2202C220.516 46.5002 220.564 50.7681 220.66 55.024C220.756 59.2799 220.804 63.5478 220.804 67.8278C220.804 68.8136 220.312 69.3065 219.326 69.3065H205.692C204.731 69.3065 204.25 68.8136 204.25 67.8278C204.25 63.5478 204.286 59.2799 204.358 55.024C204.454 50.7681 204.502 46.5002 204.502 42.2202C204.502 38.7097 204.466 35.2112 204.394 31.7247C204.322 28.2142 204.286 24.7157 204.286 21.2293Z"/>
<path d="M259.984 69.3065C259.023 69.3065 258.542 68.7896 258.542 67.7556C258.542 66.4813 258.602 65.2069 258.722 63.9326C258.866 62.6341 258.962 61.3598 259.011 60.1095C259.131 57.3203 259.227 54.5191 259.299 51.7058C259.371 48.8926 259.407 46.0914 259.407 43.3022C259.407 39.7436 259.311 36.1971 259.119 32.6625C258.926 29.1279 258.794 25.5934 258.722 22.0588V21.3014C258.722 21.0609 258.758 20.7484 258.83 20.3637C258.902 19.9789 259.107 19.7866 259.443 19.7866C259.756 19.7866 260.081 19.9429 260.417 20.2555C260.778 20.568 261.054 20.8205 261.247 21.0129C264.06 23.802 266.789 26.6874 269.434 29.6689C272.079 32.6264 274.712 35.5959 277.333 38.5775C278.583 39.9721 279.821 41.4027 281.047 42.8694C282.298 44.3362 283.584 45.7308 284.907 47.0532C284.955 47.1013 285.027 47.1494 285.123 47.1975H285.52C285.52 47.1975 286.049 46.6445 287.107 45.5384C288.189 44.4083 289.583 42.9416 291.291 41.1382C292.998 39.3349 294.849 37.3873 296.845 35.2954C298.841 33.2035 300.788 31.1597 302.688 29.164C304.611 27.1683 306.294 25.4251 307.737 23.9343C309.204 22.4435 310.238 21.4096 310.839 20.8325C311.079 20.5921 311.32 20.3757 311.56 20.1833C311.801 19.991 312.077 19.8467 312.39 19.7505C312.438 19.7505 312.474 19.7505 312.498 19.7505C312.546 19.7265 312.582 19.7144 312.606 19.7144C313.015 19.7144 313.231 19.9429 313.255 20.3997C313.303 20.8566 313.327 21.2293 313.327 21.5178V21.9506C313.255 25.2207 313.123 28.4907 312.931 31.7608C312.762 35.0309 312.678 38.313 312.678 41.6071C312.678 44.5405 312.702 47.486 312.75 50.4435C312.822 53.401 312.931 56.3465 313.075 59.2799C313.147 60.7226 313.243 62.1773 313.364 63.644C313.508 65.0867 313.58 66.5294 313.58 67.9721C313.58 68.8617 313.111 69.3065 312.173 69.3065H298.504C297.518 69.3065 297.013 68.8256 296.989 67.8639C296.989 67.6475 296.977 67.2026 296.953 66.5294C296.953 65.8561 296.941 65.1228 296.917 64.3293C296.917 63.5118 296.905 62.7904 296.881 62.1653C296.857 61.5401 296.821 61.1794 296.773 61.0833L296.628 61.0111C296.532 61.0111 296.184 61.3237 295.582 61.9489C294.981 62.55 294.236 63.3194 293.346 64.2572C292.481 65.1949 291.591 66.1567 290.677 67.1425C289.788 68.1283 288.994 68.994 288.297 69.7393C287.6 70.4847 287.143 70.9656 286.926 71.182C286.782 71.3263 286.626 71.4585 286.458 71.5788C286.289 71.699 286.097 71.7591 285.88 71.7591C285.664 71.7591 285.472 71.699 285.303 71.5788C285.159 71.4826 285.003 71.3623 284.835 71.2181C284.594 71.0017 284.113 70.5448 283.392 69.8475C282.695 69.1502 281.877 68.3447 280.939 67.431C280.026 66.4933 279.124 65.5916 278.234 64.726C277.345 63.8364 276.575 63.103 275.926 62.5259C275.301 61.9489 274.94 61.6603 274.844 61.6603C274.772 61.6603 274.724 61.7445 274.7 61.9128C274.676 62.0571 274.664 62.1532 274.664 62.2013L274.519 67.8639C274.495 68.8256 273.99 69.3065 273.005 69.3065H259.984Z"/>
</mask>
<path d="M50.8353 21.2293C50.8353 20.2434 51.3283 19.7505 52.3141 19.7505H65.8031C66.789 19.7505 67.2819 20.2434 67.2819 21.2293C67.2819 24.7157 67.2458 28.2142 67.1737 31.7247C67.1015 35.2112 67.0655 38.7097 67.0655 42.2202C67.0655 46.5002 67.1136 50.7681 67.2097 55.024C67.3059 59.2799 67.354 63.5478 67.354 67.8278C67.354 68.8136 66.8611 69.3065 65.8753 69.3065H52.242C51.2802 69.3065 50.7993 68.8136 50.7993 67.8278C50.7993 63.5478 50.8353 59.2799 50.9075 55.024C51.0037 50.7681 51.0517 46.5002 51.0517 42.2202C51.0517 38.7097 51.0157 35.2112 50.9435 31.7247C50.8714 28.2142 50.8353 24.7157 50.8353 21.2293Z" fill="white"/>
<path d="M20.0353 19.7505C23.137 19.7505 26.0585 20.0511 28.7996 20.6522C31.5647 21.2293 34.0052 22.2151 36.1212 23.6097C38.2611 24.9802 39.9322 26.8437 41.1345 29.2001C42.3607 31.5564 42.9739 34.5019 42.9739 38.0365V38.325C42.9498 41.2104 42.4329 43.9515 41.423 46.5483C40.4131 49.1211 38.73 51.3211 36.3736 53.1485C35.9168 53.5092 35.4479 53.8218 34.967 54.0863C34.4861 54.3508 34.0052 54.6393 33.5243 54.9519C33.4762 54.9759 33.4041 55.036 33.3079 55.1322L33.2719 55.2404C33.2719 55.3606 33.5844 55.7934 34.2096 56.5388C34.8588 57.2842 35.6643 58.1859 36.6261 59.2438C37.6119 60.2778 38.6098 61.3357 39.6197 62.4177C40.6295 63.4757 41.5192 64.4134 42.2886 65.231C43.0821 66.0244 43.599 66.5534 43.8395 66.8179C44.0318 67.0343 44.2482 67.2748 44.4887 67.5392C44.7291 67.8037 44.8494 68.1043 44.8494 68.4409C44.8494 68.8737 44.5849 69.1262 44.0559 69.1983C43.5269 69.2705 43.1181 69.3065 42.8296 69.3065H27.6454C27.2126 69.3065 26.8159 69.1021 26.4552 68.6934C26.2148 68.4289 25.794 67.8638 25.1929 66.9982C24.6158 66.1086 23.9425 65.0987 23.1731 63.9686C22.4277 62.8385 21.6944 61.7325 20.973 60.6505C20.2517 59.5684 19.6265 58.6788 19.0975 57.9815C18.5686 57.2602 18.244 56.8995 18.1237 56.8995C17.7631 56.8995 17.5587 57.0438 17.5106 57.3323C17.4625 57.7651 17.4385 58.2219 17.4385 58.7028C17.4385 59.1597 17.4385 59.6045 17.4385 60.0373C17.4385 61.3357 17.4505 62.6462 17.4745 63.9686C17.5226 65.267 17.4866 66.5534 17.3663 67.8278C17.3182 68.3327 17.198 68.7054 17.0057 68.9459C16.8133 69.1863 16.4406 69.3065 15.8876 69.3065H2.29034C1.32855 69.3065 0.847656 68.8016 0.847656 67.7917C0.847656 66.4933 0.895746 65.1829 0.991924 63.8604C1.0881 62.538 1.16024 61.2275 1.20833 59.9291C1.32855 57.2121 1.41271 54.495 1.46079 51.778C1.53293 49.0369 1.569 46.2958 1.569 43.5547C1.569 41.0541 1.54495 38.5414 1.49686 36.0167C1.44877 33.492 1.37664 30.9794 1.28046 28.4787C1.25642 27.2765 1.1963 26.0743 1.10013 24.872C1.02799 23.6457 0.991924 22.4435 0.991924 21.2653C0.991924 20.2555 1.47282 19.7505 2.4346 19.7505H20.0353ZM21.7304 44.4203C23.0529 44.4203 24.0387 44.1198 24.6879 43.5186C25.3371 42.8935 25.7699 42.088 25.9863 41.1022C26.2027 40.1163 26.3109 39.0824 26.3109 38.0004C26.3109 36.4615 25.9382 35.2713 25.1929 34.4298C24.4715 33.5882 23.3174 33.1674 21.7304 33.1674H17.5106C17.5106 35.0429 17.5106 36.9184 17.5106 38.7939C17.5346 40.6694 17.5467 42.5448 17.5467 44.4203H21.7304Z" fill="white"/>
<path d="M112.584 21.2653C112.584 20.2555 113.065 19.7505 114.027 19.7505H147.425C148.387 19.7505 148.867 20.2555 148.867 21.2653C148.867 22.4435 148.831 23.6337 148.759 24.836C148.711 26.0141 148.663 27.2044 148.615 28.4066C148.591 29.3684 148.567 30.3302 148.543 31.2919C148.543 32.2297 148.519 33.1795 148.471 34.1412C148.447 35.1271 147.954 35.62 146.992 35.62H138.769C138.456 35.62 138.3 35.7763 138.3 36.0889V41.7153C138.3 46.0674 138.348 50.4195 138.444 54.7715C138.54 59.1236 138.588 63.4757 138.588 67.8278C138.588 68.8136 138.095 69.3065 137.11 69.3065H123.476C122.539 69.3065 122.07 68.8136 122.07 67.8278C122.07 63.8604 122.106 59.8931 122.178 55.9257C122.25 51.9583 122.286 47.991 122.286 44.0236V36.0889C122.286 35.7763 122.142 35.62 121.853 35.62H114.46C113.498 35.62 113.005 35.1271 112.981 34.1412C112.933 33.1795 112.909 32.2297 112.909 31.2919C112.909 30.3302 112.885 29.3684 112.837 28.4066C112.813 27.2044 112.764 26.0141 112.692 24.836C112.62 23.6337 112.584 22.4435 112.584 21.2653Z" fill="white"/>
<path d="M167.966 67.7917C167.966 66.2288 167.99 64.6659 168.039 63.103C168.087 61.5401 168.111 59.9892 168.111 58.4504C168.111 58.234 168.111 57.8012 168.111 57.152C168.111 56.4787 168.087 56.07 168.039 55.9257C167.942 55.541 167.798 55.1563 167.606 54.7715C167.413 54.3868 167.233 54.0021 167.065 53.6174C166.608 52.5354 166.139 51.4654 165.658 50.4074C165.177 49.3254 164.696 48.2554 164.215 47.1975C162.316 42.9416 160.38 38.7097 158.409 34.5019C156.461 30.27 154.453 26.0622 152.385 21.8785C152.289 21.6861 152.205 21.5058 152.133 21.3375C152.061 21.1451 152.025 20.9527 152.025 20.7604C152.025 20.3035 152.205 20.027 152.566 19.9309C152.951 19.8106 153.311 19.7505 153.648 19.7505H170.563C170.972 19.7505 171.273 19.8467 171.465 20.0391C171.657 20.2074 171.826 20.4719 171.97 20.8325C172.258 21.5298 172.487 22.2752 172.655 23.0687C172.847 23.8381 173.04 24.5955 173.232 25.3409C173.593 26.6393 173.954 27.9497 174.314 29.2722C174.675 30.5706 175.036 31.869 175.396 33.1674C175.54 33.6964 175.697 34.2374 175.865 34.7904C176.033 35.3435 176.178 35.8965 176.298 36.4495C176.346 36.5697 176.37 36.6779 176.37 36.7741C176.394 36.8703 176.454 36.9785 176.55 37.0987L176.695 37.1348C176.839 37.1588 176.935 37.0747 176.983 36.8823C177.055 36.69 177.103 36.5457 177.127 36.4495C177.632 34.5981 178.113 32.7466 178.57 30.8952C179.051 29.0438 179.532 27.1923 180.013 25.3409C180.205 24.5955 180.373 23.8381 180.518 23.0687C180.686 22.2752 180.914 21.5298 181.203 20.8325C181.492 20.1112 181.972 19.7505 182.646 19.7505H199.561C199.898 19.7505 200.246 19.8106 200.607 19.9309C200.992 20.0511 201.184 20.3276 201.184 20.7604C201.184 20.9768 201.136 21.1812 201.04 21.3735C200.968 21.5418 200.884 21.7222 200.787 21.9145C198.744 25.9059 196.724 29.9214 194.728 33.9609C192.732 37.9764 190.785 42.0279 188.885 46.1155C188.741 46.4281 188.416 47.1013 187.911 48.1352C187.431 49.1451 186.902 50.2511 186.325 51.4534C185.771 52.6556 185.291 53.7256 184.882 54.6633C184.473 55.6011 184.269 56.1541 184.269 56.3224C184.269 58.2219 184.305 60.1335 184.377 62.0571C184.449 63.9806 184.485 65.9042 184.485 67.8278C184.485 68.8136 183.992 69.3065 183.006 69.3065H169.409C168.447 69.3065 167.966 68.8016 167.966 67.7917Z" fill="white"/>
<path d="M71.1273 21.2653C71.1273 20.2555 71.6081 19.7505 72.5699 19.7505H105.968C106.93 19.7505 107.411 20.2555 107.411 21.2653C107.411 22.4435 107.375 23.6337 107.302 24.836C107.254 26.0141 107.206 27.2044 107.158 28.4066C107.134 29.3684 107.11 30.3302 107.086 31.2919C107.086 32.2297 107.062 33.1795 107.014 34.1412C106.99 35.1271 106.497 35.62 105.535 35.62H97.3119C96.9993 35.62 96.843 35.7763 96.843 36.0889V41.7153C96.843 46.0674 96.8911 50.4195 96.9873 54.7715C97.0834 59.1236 97.1315 63.4757 97.1315 67.8278C97.1315 68.8136 96.6386 69.3065 95.6528 69.3065H82.0195C81.0817 69.3065 80.6129 68.8136 80.6129 67.8278C80.6129 63.8604 80.6489 59.8931 80.7211 55.9257C80.7932 51.9583 80.8293 47.991 80.8293 44.0236V36.0889C80.8293 35.7763 80.685 35.62 80.3965 35.62H73.0027C72.0409 35.62 71.548 35.1271 71.524 34.1412C71.4759 33.1795 71.4519 32.2297 71.4519 31.2919C71.4519 30.3302 71.4278 29.3684 71.3797 28.4066C71.3557 27.2044 71.3076 26.0141 71.2355 24.836C71.1633 23.6337 71.1273 22.4435 71.1273 21.2653Z" fill="white"/>
<path d="M243.754 19.498C244.211 19.498 244.992 19.5341 246.098 19.6062C247.228 19.6543 248.418 19.7746 249.669 19.9669C250.943 20.1352 252.025 20.4117 252.915 20.7965C253.828 21.1571 254.285 21.65 254.285 22.2752C254.285 22.5878 254.189 23.249 253.997 24.2589C253.804 25.2688 253.564 26.3989 253.275 27.6492C253.011 28.8995 252.758 30.0657 252.518 31.1477C252.278 32.2056 252.097 32.951 251.977 33.3838C251.881 33.7685 251.761 34.1052 251.616 34.3937C251.472 34.6582 251.159 34.7904 250.679 34.7904C250.51 34.7904 250.354 34.7664 250.21 34.7183C250.065 34.6702 249.921 34.6342 249.777 34.6101C248.719 34.3456 247.673 34.2134 246.639 34.2134C246.158 34.2134 245.617 34.2855 245.016 34.4298C244.439 34.574 244.15 34.9828 244.15 35.656C244.15 36.3774 244.391 37.1228 244.872 37.8922C245.377 38.6616 245.966 39.383 246.639 40.0562C247.312 40.7295 247.913 41.2825 248.442 41.7153C250.15 43.0378 251.532 44.2039 252.59 45.2138C253.672 46.2237 254.466 47.4019 254.971 48.7484C255.5 50.0708 255.764 51.8862 255.764 54.1945V55.024C255.764 58.0296 255.235 60.5062 254.177 62.4538C253.143 64.3774 251.712 65.8802 249.885 66.9622C248.058 68.0442 245.978 68.8016 243.646 69.2344C241.313 69.6672 238.861 69.8836 236.288 69.8836C234.821 69.8836 233.09 69.8115 231.094 69.6672C229.123 69.547 227.463 69.2104 226.117 68.6573C225.804 68.5371 225.552 68.3928 225.36 68.2245C225.191 68.0562 225.107 67.7797 225.107 67.395C225.107 67.2748 225.131 67.1185 225.179 66.9261C225.42 65.6517 225.66 64.3894 225.901 63.1391C226.141 61.8888 226.369 60.6384 226.586 59.3881C226.682 58.787 226.754 58.1859 226.802 57.5848C226.874 56.9596 226.995 56.3585 227.163 55.7814C227.235 55.541 227.355 55.2524 227.524 54.9158C227.716 54.5792 227.968 54.4109 228.281 54.4109C228.473 54.4109 228.654 54.4349 228.822 54.483C229.014 54.5071 229.195 54.5431 229.363 54.5912C230.421 54.8317 231.455 55.012 232.465 55.1322C233.475 55.2524 234.521 55.3125 235.603 55.3125C236.156 55.3125 236.685 55.2404 237.19 55.0961C237.694 54.9519 237.947 54.5191 237.947 53.7977C237.947 53.0764 237.767 52.4031 237.406 51.778C237.093 51.225 236.721 50.696 236.288 50.191C235.879 49.6621 235.446 49.1691 234.989 48.7123C234.412 48.1112 233.799 47.5581 233.15 47.0532C232.501 46.5483 231.852 46.0313 231.202 45.5023C229.159 43.9154 227.86 42.3164 227.307 40.7054C226.754 39.0704 226.454 36.9785 226.405 34.4298V34.1052C226.405 30.4504 227.163 27.565 228.678 25.4491C230.193 23.3091 232.26 21.7823 234.881 20.8686C237.502 19.9549 240.46 19.498 243.754 19.498Z" fill="white"/>
<path d="M204.286 21.2293C204.286 20.2434 204.779 19.7505 205.765 19.7505H219.254C220.239 19.7505 220.732 20.2434 220.732 21.2293C220.732 24.7157 220.696 28.2142 220.624 31.7247C220.552 35.2112 220.516 38.7097 220.516 42.2202C220.516 46.5002 220.564 50.7681 220.66 55.024C220.756 59.2799 220.804 63.5478 220.804 67.8278C220.804 68.8136 220.312 69.3065 219.326 69.3065H205.692C204.731 69.3065 204.25 68.8136 204.25 67.8278C204.25 63.5478 204.286 59.2799 204.358 55.024C204.454 50.7681 204.502 46.5002 204.502 42.2202C204.502 38.7097 204.466 35.2112 204.394 31.7247C204.322 28.2142 204.286 24.7157 204.286 21.2293Z" fill="white"/>
<path d="M259.984 69.3065C259.023 69.3065 258.542 68.7896 258.542 67.7556C258.542 66.4813 258.602 65.2069 258.722 63.9326C258.866 62.6341 258.962 61.3598 259.011 60.1095C259.131 57.3203 259.227 54.5191 259.299 51.7058C259.371 48.8926 259.407 46.0914 259.407 43.3022C259.407 39.7436 259.311 36.1971 259.119 32.6625C258.926 29.1279 258.794 25.5934 258.722 22.0588V21.3014C258.722 21.0609 258.758 20.7484 258.83 20.3637C258.902 19.9789 259.107 19.7866 259.443 19.7866C259.756 19.7866 260.081 19.9429 260.417 20.2555C260.778 20.568 261.054 20.8205 261.247 21.0129C264.06 23.802 266.789 26.6874 269.434 29.6689C272.079 32.6264 274.712 35.5959 277.333 38.5775C278.583 39.9721 279.821 41.4027 281.047 42.8694C282.298 44.3362 283.584 45.7308 284.907 47.0532C284.955 47.1013 285.027 47.1494 285.123 47.1975H285.52C285.52 47.1975 286.049 46.6445 287.107 45.5384C288.189 44.4083 289.583 42.9416 291.291 41.1382C292.998 39.3349 294.849 37.3873 296.845 35.2954C298.841 33.2035 300.788 31.1597 302.688 29.164C304.611 27.1683 306.294 25.4251 307.737 23.9343C309.204 22.4435 310.238 21.4096 310.839 20.8325C311.079 20.5921 311.32 20.3757 311.56 20.1833C311.801 19.991 312.077 19.8467 312.39 19.7505C312.438 19.7505 312.474 19.7505 312.498 19.7505C312.546 19.7265 312.582 19.7144 312.606 19.7144C313.015 19.7144 313.231 19.9429 313.255 20.3997C313.303 20.8566 313.327 21.2293 313.327 21.5178V21.9506C313.255 25.2207 313.123 28.4907 312.931 31.7608C312.762 35.0309 312.678 38.313 312.678 41.6071C312.678 44.5405 312.702 47.486 312.75 50.4435C312.822 53.401 312.931 56.3465 313.075 59.2799C313.147 60.7226 313.243 62.1773 313.364 63.644C313.508 65.0867 313.58 66.5294 313.58 67.9721C313.58 68.8617 313.111 69.3065 312.173 69.3065H298.504C297.518 69.3065 297.013 68.8256 296.989 67.8639C296.989 67.6475 296.977 67.2026 296.953 66.5294C296.953 65.8561 296.941 65.1228 296.917 64.3293C296.917 63.5118 296.905 62.7904 296.881 62.1653C296.857 61.5401 296.821 61.1794 296.773 61.0833L296.628 61.0111C296.532 61.0111 296.184 61.3237 295.582 61.9489C294.981 62.55 294.236 63.3194 293.346 64.2572C292.481 65.1949 291.591 66.1567 290.677 67.1425C289.788 68.1283 288.994 68.994 288.297 69.7393C287.6 70.4847 287.143 70.9656 286.926 71.182C286.782 71.3263 286.626 71.4585 286.458 71.5788C286.289 71.699 286.097 71.7591 285.88 71.7591C285.664 71.7591 285.472 71.699 285.303 71.5788C285.159 71.4826 285.003 71.3623 284.835 71.2181C284.594 71.0017 284.113 70.5448 283.392 69.8475C282.695 69.1502 281.877 68.3447 280.939 67.431C280.026 66.4933 279.124 65.5916 278.234 64.726C277.345 63.8364 276.575 63.103 275.926 62.5259C275.301 61.9489 274.94 61.6603 274.844 61.6603C274.772 61.6603 274.724 61.7445 274.7 61.9128C274.676 62.0571 274.664 62.1532 274.664 62.2013L274.519 67.8639C274.495 68.8256 273.99 69.3065 273.005 69.3065H259.984Z" fill="white"/>
<path d="M50.8353 21.2293C50.8353 20.2434 51.3283 19.7505 52.3141 19.7505H65.8031C66.789 19.7505 67.2819 20.2434 67.2819 21.2293C67.2819 24.7157 67.2458 28.2142 67.1737 31.7247C67.1015 35.2112 67.0655 38.7097 67.0655 42.2202C67.0655 46.5002 67.1136 50.7681 67.2097 55.024C67.3059 59.2799 67.354 63.5478 67.354 67.8278C67.354 68.8136 66.8611 69.3065 65.8753 69.3065H52.242C51.2802 69.3065 50.7993 68.8136 50.7993 67.8278C50.7993 63.5478 50.8353 59.2799 50.9075 55.024C51.0037 50.7681 51.0517 46.5002 51.0517 42.2202C51.0517 38.7097 51.0157 35.2112 50.9435 31.7247C50.8714 28.2142 50.8353 24.7157 50.8353 21.2293Z" stroke="#6B72FF" stroke-width="0.85229" mask="url(#path-1-inside-1_1244_3199)"/>
<path d="M20.0353 19.7505C23.137 19.7505 26.0585 20.0511 28.7996 20.6522C31.5647 21.2293 34.0052 22.2151 36.1212 23.6097C38.2611 24.9802 39.9322 26.8437 41.1345 29.2001C42.3607 31.5564 42.9739 34.5019 42.9739 38.0365V38.325C42.9498 41.2104 42.4329 43.9515 41.423 46.5483C40.4131 49.1211 38.73 51.3211 36.3736 53.1485C35.9168 53.5092 35.4479 53.8218 34.967 54.0863C34.4861 54.3508 34.0052 54.6393 33.5243 54.9519C33.4762 54.9759 33.4041 55.036 33.3079 55.1322L33.2719 55.2404C33.2719 55.3606 33.5844 55.7934 34.2096 56.5388C34.8588 57.2842 35.6643 58.1859 36.6261 59.2438C37.6119 60.2778 38.6098 61.3357 39.6197 62.4177C40.6295 63.4757 41.5192 64.4134 42.2886 65.231C43.0821 66.0244 43.599 66.5534 43.8395 66.8179C44.0318 67.0343 44.2482 67.2748 44.4887 67.5392C44.7291 67.8037 44.8494 68.1043 44.8494 68.4409C44.8494 68.8737 44.5849 69.1262 44.0559 69.1983C43.5269 69.2705 43.1181 69.3065 42.8296 69.3065H27.6454C27.2126 69.3065 26.8159 69.1021 26.4552 68.6934C26.2148 68.4289 25.794 67.8638 25.1929 66.9982C24.6158 66.1086 23.9425 65.0987 23.1731 63.9686C22.4277 62.8385 21.6944 61.7325 20.973 60.6505C20.2517 59.5684 19.6265 58.6788 19.0975 57.9815C18.5686 57.2602 18.244 56.8995 18.1237 56.8995C17.7631 56.8995 17.5587 57.0438 17.5106 57.3323C17.4625 57.7651 17.4385 58.2219 17.4385 58.7028C17.4385 59.1597 17.4385 59.6045 17.4385 60.0373C17.4385 61.3357 17.4505 62.6462 17.4745 63.9686C17.5226 65.267 17.4866 66.5534 17.3663 67.8278C17.3182 68.3327 17.198 68.7054 17.0057 68.9459C16.8133 69.1863 16.4406 69.3065 15.8876 69.3065H2.29034C1.32855 69.3065 0.847656 68.8016 0.847656 67.7917C0.847656 66.4933 0.895746 65.1829 0.991924 63.8604C1.0881 62.538 1.16024 61.2275 1.20833 59.9291C1.32855 57.2121 1.41271 54.495 1.46079 51.778C1.53293 49.0369 1.569 46.2958 1.569 43.5547C1.569 41.0541 1.54495 38.5414 1.49686 36.0167C1.44877 33.492 1.37664 30.9794 1.28046 28.4787C1.25642 27.2765 1.1963 26.0743 1.10013 24.872C1.02799 23.6457 0.991924 22.4435 0.991924 21.2653C0.991924 20.2555 1.47282 19.7505 2.4346 19.7505H20.0353ZM21.7304 44.4203C23.0529 44.4203 24.0387 44.1198 24.6879 43.5186C25.3371 42.8935 25.7699 42.088 25.9863 41.1022C26.2027 40.1163 26.3109 39.0824 26.3109 38.0004C26.3109 36.4615 25.9382 35.2713 25.1929 34.4298C24.4715 33.5882 23.3174 33.1674 21.7304 33.1674H17.5106C17.5106 35.0429 17.5106 36.9184 17.5106 38.7939C17.5346 40.6694 17.5467 42.5448 17.5467 44.4203H21.7304Z" stroke="#6B72FF" stroke-width="0.85229" mask="url(#path-1-inside-1_1244_3199)"/>
<path d="M112.584 21.2653C112.584 20.2555 113.065 19.7505 114.027 19.7505H147.425C148.387 19.7505 148.867 20.2555 148.867 21.2653C148.867 22.4435 148.831 23.6337 148.759 24.836C148.711 26.0141 148.663 27.2044 148.615 28.4066C148.591 29.3684 148.567 30.3302 148.543 31.2919C148.543 32.2297 148.519 33.1795 148.471 34.1412C148.447 35.1271 147.954 35.62 146.992 35.62H138.769C138.456 35.62 138.3 35.7763 138.3 36.0889V41.7153C138.3 46.0674 138.348 50.4195 138.444 54.7715C138.54 59.1236 138.588 63.4757 138.588 67.8278C138.588 68.8136 138.095 69.3065 137.11 69.3065H123.476C122.539 69.3065 122.07 68.8136 122.07 67.8278C122.07 63.8604 122.106 59.8931 122.178 55.9257C122.25 51.9583 122.286 47.991 122.286 44.0236V36.0889C122.286 35.7763 122.142 35.62 121.853 35.62H114.46C113.498 35.62 113.005 35.1271 112.981 34.1412C112.933 33.1795 112.909 32.2297 112.909 31.2919C112.909 30.3302 112.885 29.3684 112.837 28.4066C112.813 27.2044 112.764 26.0141 112.692 24.836C112.62 23.6337 112.584 22.4435 112.584 21.2653Z" stroke="#6B72FF" stroke-width="0.85229" mask="url(#path-1-inside-1_1244_3199)"/>
<path d="M167.966 67.7917C167.966 66.2288 167.99 64.6659 168.039 63.103C168.087 61.5401 168.111 59.9892 168.111 58.4504C168.111 58.234 168.111 57.8012 168.111 57.152C168.111 56.4787 168.087 56.07 168.039 55.9257C167.942 55.541 167.798 55.1563 167.606 54.7715C167.413 54.3868 167.233 54.0021 167.065 53.6174C166.608 52.5354 166.139 51.4654 165.658 50.4074C165.177 49.3254 164.696 48.2554 164.215 47.1975C162.316 42.9416 160.38 38.7097 158.409 34.5019C156.461 30.27 154.453 26.0622 152.385 21.8785C152.289 21.6861 152.205 21.5058 152.133 21.3375C152.061 21.1451 152.025 20.9527 152.025 20.7604C152.025 20.3035 152.205 20.027 152.566 19.9309C152.951 19.8106 153.311 19.7505 153.648 19.7505H170.563C170.972 19.7505 171.273 19.8467 171.465 20.0391C171.657 20.2074 171.826 20.4719 171.97 20.8325C172.258 21.5298 172.487 22.2752 172.655 23.0687C172.847 23.8381 173.04 24.5955 173.232 25.3409C173.593 26.6393 173.954 27.9497 174.314 29.2722C174.675 30.5706 175.036 31.869 175.396 33.1674C175.54 33.6964 175.697 34.2374 175.865 34.7904C176.033 35.3435 176.178 35.8965 176.298 36.4495C176.346 36.5697 176.37 36.6779 176.37 36.7741C176.394 36.8703 176.454 36.9785 176.55 37.0987L176.695 37.1348C176.839 37.1588 176.935 37.0747 176.983 36.8823C177.055 36.69 177.103 36.5457 177.127 36.4495C177.632 34.5981 178.113 32.7466 178.57 30.8952C179.051 29.0438 179.532 27.1923 180.013 25.3409C180.205 24.5955 180.373 23.8381 180.518 23.0687C180.686 22.2752 180.914 21.5298 181.203 20.8325C181.492 20.1112 181.972 19.7505 182.646 19.7505H199.561C199.898 19.7505 200.246 19.8106 200.607 19.9309C200.992 20.0511 201.184 20.3276 201.184 20.7604C201.184 20.9768 201.136 21.1812 201.04 21.3735C200.968 21.5418 200.884 21.7222 200.787 21.9145C198.744 25.9059 196.724 29.9214 194.728 33.9609C192.732 37.9764 190.785 42.0279 188.885 46.1155C188.741 46.4281 188.416 47.1013 187.911 48.1352C187.431 49.1451 186.902 50.2511 186.325 51.4534C185.771 52.6556 185.291 53.7256 184.882 54.6633C184.473 55.6011 184.269 56.1541 184.269 56.3224C184.269 58.2219 184.305 60.1335 184.377 62.0571C184.449 63.9806 184.485 65.9042 184.485 67.8278C184.485 68.8136 183.992 69.3065 183.006 69.3065H169.409C168.447 69.3065 167.966 68.8016 167.966 67.7917Z" stroke="#6B72FF" stroke-width="0.85229" mask="url(#path-1-inside-1_1244_3199)"/>
<path d="M71.1273 21.2653C71.1273 20.2555 71.6081 19.7505 72.5699 19.7505H105.968C106.93 19.7505 107.411 20.2555 107.411 21.2653C107.411 22.4435 107.375 23.6337 107.302 24.836C107.254 26.0141 107.206 27.2044 107.158 28.4066C107.134 29.3684 107.11 30.3302 107.086 31.2919C107.086 32.2297 107.062 33.1795 107.014 34.1412C106.99 35.1271 106.497 35.62 105.535 35.62H97.3119C96.9993 35.62 96.843 35.7763 96.843 36.0889V41.7153C96.843 46.0674 96.8911 50.4195 96.9873 54.7715C97.0834 59.1236 97.1315 63.4757 97.1315 67.8278C97.1315 68.8136 96.6386 69.3065 95.6528 69.3065H82.0195C81.0817 69.3065 80.6129 68.8136 80.6129 67.8278C80.6129 63.8604 80.6489 59.8931 80.7211 55.9257C80.7932 51.9583 80.8293 47.991 80.8293 44.0236V36.0889C80.8293 35.7763 80.685 35.62 80.3965 35.62H73.0027C72.0409 35.62 71.548 35.1271 71.524 34.1412C71.4759 33.1795 71.4519 32.2297 71.4519 31.2919C71.4519 30.3302 71.4278 29.3684 71.3797 28.4066C71.3557 27.2044 71.3076 26.0141 71.2355 24.836C71.1633 23.6337 71.1273 22.4435 71.1273 21.2653Z" stroke="#6B72FF" stroke-width="0.85229" mask="url(#path-1-inside-1_1244_3199)"/>
<path d="M243.754 19.498C244.211 19.498 244.992 19.5341 246.098 19.6062C247.228 19.6543 248.418 19.7746 249.669 19.9669C250.943 20.1352 252.025 20.4117 252.915 20.7965C253.828 21.1571 254.285 21.65 254.285 22.2752C254.285 22.5878 254.189 23.249 253.997 24.2589C253.804 25.2688 253.564 26.3989 253.275 27.6492C253.011 28.8995 252.758 30.0657 252.518 31.1477C252.278 32.2056 252.097 32.951 251.977 33.3838C251.881 33.7685 251.761 34.1052 251.616 34.3937C251.472 34.6582 251.159 34.7904 250.679 34.7904C250.51 34.7904 250.354 34.7664 250.21 34.7183C250.065 34.6702 249.921 34.6342 249.777 34.6101C248.719 34.3456 247.673 34.2134 246.639 34.2134C246.158 34.2134 245.617 34.2855 245.016 34.4298C244.439 34.574 244.15 34.9828 244.15 35.656C244.15 36.3774 244.391 37.1228 244.872 37.8922C245.377 38.6616 245.966 39.383 246.639 40.0562C247.312 40.7295 247.913 41.2825 248.442 41.7153C250.15 43.0378 251.532 44.2039 252.59 45.2138C253.672 46.2237 254.466 47.4019 254.971 48.7484C255.5 50.0708 255.764 51.8862 255.764 54.1945V55.024C255.764 58.0296 255.235 60.5062 254.177 62.4538C253.143 64.3774 251.712 65.8802 249.885 66.9622C248.058 68.0442 245.978 68.8016 243.646 69.2344C241.313 69.6672 238.861 69.8836 236.288 69.8836C234.821 69.8836 233.09 69.8115 231.094 69.6672C229.123 69.547 227.463 69.2104 226.117 68.6573C225.804 68.5371 225.552 68.3928 225.36 68.2245C225.191 68.0562 225.107 67.7797 225.107 67.395C225.107 67.2748 225.131 67.1185 225.179 66.9261C225.42 65.6517 225.66 64.3894 225.901 63.1391C226.141 61.8888 226.369 60.6384 226.586 59.3881C226.682 58.787 226.754 58.1859 226.802 57.5848C226.874 56.9596 226.995 56.3585 227.163 55.7814C227.235 55.541 227.355 55.2524 227.524 54.9158C227.716 54.5792 227.968 54.4109 228.281 54.4109C228.473 54.4109 228.654 54.4349 228.822 54.483C229.014 54.5071 229.195 54.5431 229.363 54.5912C230.421 54.8317 231.455 55.012 232.465 55.1322C233.475 55.2524 234.521 55.3125 235.603 55.3125C236.156 55.3125 236.685 55.2404 237.19 55.0961C237.694 54.9519 237.947 54.5191 237.947 53.7977C237.947 53.0764 237.767 52.4031 237.406 51.778C237.093 51.225 236.721 50.696 236.288 50.191C235.879 49.6621 235.446 49.1691 234.989 48.7123C234.412 48.1112 233.799 47.5581 233.15 47.0532C232.501 46.5483 231.852 46.0313 231.202 45.5023C229.159 43.9154 227.86 42.3164 227.307 40.7054C226.754 39.0704 226.454 36.9785 226.405 34.4298V34.1052C226.405 30.4504 227.163 27.565 228.678 25.4491C230.193 23.3091 232.26 21.7823 234.881 20.8686C237.502 19.9549 240.46 19.498 243.754 19.498Z" stroke="#6B72FF" stroke-width="0.85229" mask="url(#path-1-inside-1_1244_3199)"/>
<path d="M204.286 21.2293C204.286 20.2434 204.779 19.7505 205.765 19.7505H219.254C220.239 19.7505 220.732 20.2434 220.732 21.2293C220.732 24.7157 220.696 28.2142 220.624 31.7247C220.552 35.2112 220.516 38.7097 220.516 42.2202C220.516 46.5002 220.564 50.7681 220.66 55.024C220.756 59.2799 220.804 63.5478 220.804 67.8278C220.804 68.8136 220.312 69.3065 219.326 69.3065H205.692C204.731 69.3065 204.25 68.8136 204.25 67.8278C204.25 63.5478 204.286 59.2799 204.358 55.024C204.454 50.7681 204.502 46.5002 204.502 42.2202C204.502 38.7097 204.466 35.2112 204.394 31.7247C204.322 28.2142 204.286 24.7157 204.286 21.2293Z" stroke="#6B72FF" stroke-width="0.85229" mask="url(#path-1-inside-1_1244_3199)"/>
<path d="M259.984 69.3065C259.023 69.3065 258.542 68.7896 258.542 67.7556C258.542 66.4813 258.602 65.2069 258.722 63.9326C258.866 62.6341 258.962 61.3598 259.011 60.1095C259.131 57.3203 259.227 54.5191 259.299 51.7058C259.371 48.8926 259.407 46.0914 259.407 43.3022C259.407 39.7436 259.311 36.1971 259.119 32.6625C258.926 29.1279 258.794 25.5934 258.722 22.0588V21.3014C258.722 21.0609 258.758 20.7484 258.83 20.3637C258.902 19.9789 259.107 19.7866 259.443 19.7866C259.756 19.7866 260.081 19.9429 260.417 20.2555C260.778 20.568 261.054 20.8205 261.247 21.0129C264.06 23.802 266.789 26.6874 269.434 29.6689C272.079 32.6264 274.712 35.5959 277.333 38.5775C278.583 39.9721 279.821 41.4027 281.047 42.8694C282.298 44.3362 283.584 45.7308 284.907 47.0532C284.955 47.1013 285.027 47.1494 285.123 47.1975H285.52C285.52 47.1975 286.049 46.6445 287.107 45.5384C288.189 44.4083 289.583 42.9416 291.291 41.1382C292.998 39.3349 294.849 37.3873 296.845 35.2954C298.841 33.2035 300.788 31.1597 302.688 29.164C304.611 27.1683 306.294 25.4251 307.737 23.9343C309.204 22.4435 310.238 21.4096 310.839 20.8325C311.079 20.5921 311.32 20.3757 311.56 20.1833C311.801 19.991 312.077 19.8467 312.39 19.7505C312.438 19.7505 312.474 19.7505 312.498 19.7505C312.546 19.7265 312.582 19.7144 312.606 19.7144C313.015 19.7144 313.231 19.9429 313.255 20.3997C313.303 20.8566 313.327 21.2293 313.327 21.5178V21.9506C313.255 25.2207 313.123 28.4907 312.931 31.7608C312.762 35.0309 312.678 38.313 312.678 41.6071C312.678 44.5405 312.702 47.486 312.75 50.4435C312.822 53.401 312.931 56.3465 313.075 59.2799C313.147 60.7226 313.243 62.1773 313.364 63.644C313.508 65.0867 313.58 66.5294 313.58 67.9721C313.58 68.8617 313.111 69.3065 312.173 69.3065H298.504C297.518 69.3065 297.013 68.8256 296.989 67.8639C296.989 67.6475 296.977 67.2026 296.953 66.5294C296.953 65.8561 296.941 65.1228 296.917 64.3293C296.917 63.5118 296.905 62.7904 296.881 62.1653C296.857 61.5401 296.821 61.1794 296.773 61.0833L296.628 61.0111C296.532 61.0111 296.184 61.3237 295.582 61.9489C294.981 62.55 294.236 63.3194 293.346 64.2572C292.481 65.1949 291.591 66.1567 290.677 67.1425C289.788 68.1283 288.994 68.994 288.297 69.7393C287.6 70.4847 287.143 70.9656 286.926 71.182C286.782 71.3263 286.626 71.4585 286.458 71.5788C286.289 71.699 286.097 71.7591 285.88 71.7591C285.664 71.7591 285.472 71.699 285.303 71.5788C285.159 71.4826 285.003 71.3623 284.835 71.2181C284.594 71.0017 284.113 70.5448 283.392 69.8475C282.695 69.1502 281.877 68.3447 280.939 67.431C280.026 66.4933 279.124 65.5916 278.234 64.726C277.345 63.8364 276.575 63.103 275.926 62.5259C275.301 61.9489 274.94 61.6603 274.844 61.6603C274.772 61.6603 274.724 61.7445 274.7 61.9128C274.676 62.0571 274.664 62.1532 274.664 62.2013L274.519 67.8639C274.495 68.8256 273.99 69.3065 273.005 69.3065H259.984Z" stroke="#6B72FF" stroke-width="0.85229" mask="url(#path-1-inside-1_1244_3199)"/>
<g clip-path="url(#clip0_1244_3199)">
<g filter="url(#filter0_d_1244_3199)">
<path d="M326.776 37.6047C326.716 37.7815 326.761 37.9769 326.893 38.1089C327.025 38.2409 327.221 38.2865 327.398 38.2266L337.33 34.8598C340.666 36.5162 344.479 36.953 348.107 36.0899C351.802 35.2107 355.062 33.0405 357.299 29.9704C359.536 26.9002 360.603 23.1321 360.308 19.3449C360.012 15.5577 358.374 12.0006 355.688 9.31452C353.002 6.62845 349.445 4.99007 345.658 4.69462C341.87 4.39917 338.102 5.46608 335.032 7.70309C331.962 9.9401 329.792 13.2001 328.912 16.8956C328.049 20.5234 328.486 24.3366 330.143 27.6726L326.776 37.6047Z" fill="white" stroke="url(#paint0_linear_1244_3199)" stroke-width="0.98081" stroke-linecap="round" stroke-linejoin="round"/>
<mask id="path-3-outside-2_1244_3199" maskUnits="userSpaceOnUse" x="335.6" y="13.5664" width="18" height="16" fill="black">
<rect fill="white" x="335.6" y="13.5664" width="18" height="16"/>
<path d="M350.927 15.793C350.125 15.0068 349.047 14.5664 347.924 14.5664C346.8 14.5664 345.722 15.0068 344.92 15.793L344.405 16.4796L343.804 15.9647C343.411 15.5388 342.932 15.2 342.4 14.9701C341.868 14.7402 341.293 14.6243 340.713 14.6299C340.134 14.6354 339.561 14.7624 339.034 15.0024C338.506 15.2425 338.034 15.5904 337.649 16.0238C337.264 16.4572 336.973 16.9665 336.797 17.5188C336.62 18.0711 336.561 18.6543 336.624 19.2307C336.686 19.8072 336.869 20.3642 337.159 20.8659C337.45 21.3677 337.843 21.8029 338.312 22.1438L344.491 28.1512L350.67 22.1438C352.73 20.0841 352.558 17.5094 351.013 15.793"/>
</mask>
<path d="M350.927 15.793C350.125 15.0068 349.047 14.5664 347.924 14.5664C346.8 14.5664 345.722 15.0068 344.92 15.793L344.405 16.4796L343.804 15.9647C343.411 15.5388 342.932 15.2 342.4 14.9701C341.868 14.7402 341.293 14.6243 340.713 14.6299C340.134 14.6354 339.561 14.7624 339.034 15.0024C338.506 15.2425 338.034 15.5904 337.649 16.0238C337.264 16.4572 336.973 16.9665 336.797 17.5188C336.62 18.0711 336.561 18.6543 336.624 19.2307C336.686 19.8072 336.869 20.3642 337.159 20.8659C337.45 21.3677 337.843 21.8029 338.312 22.1438L344.491 28.1512L350.67 22.1438C352.73 20.0841 352.558 17.5094 351.013 15.793" fill="url(#paint1_linear_1244_3199)"/>
<path d="M350.515 16.2133C350.748 16.4408 351.12 16.4371 351.348 16.205C351.575 15.9729 351.571 15.6003 351.339 15.3728L350.515 16.2133ZM347.924 14.5664V13.9779V14.5664ZM344.92 15.793L344.508 15.3728C344.487 15.3936 344.467 15.4161 344.449 15.4399L344.92 15.793ZM344.405 16.4796L344.022 16.9264C344.146 17.0323 344.307 17.0823 344.469 17.0646C344.631 17.0468 344.778 16.9629 344.876 16.8327L344.405 16.4796ZM343.804 15.9647L343.372 16.364C343.388 16.3808 343.404 16.3966 343.421 16.4115L343.804 15.9647ZM338.312 22.1438L338.722 21.7218C338.702 21.7023 338.68 21.6842 338.658 21.6677L338.312 22.1438ZM344.491 28.1512L344.081 28.5732C344.309 28.7952 344.673 28.7952 344.901 28.5732L344.491 28.1512ZM350.67 22.1438L351.08 22.5658L351.086 22.5599L350.67 22.1438ZM351.451 15.3994C351.233 15.1578 350.861 15.1382 350.62 15.3556C350.378 15.573 350.358 15.9451 350.576 16.1867L351.451 15.3994ZM351.339 15.3728C350.427 14.4787 349.201 13.9779 347.924 13.9779V15.1549C348.893 15.1549 349.823 15.5349 350.515 16.2133L351.339 15.3728ZM347.924 13.9779C346.646 13.9779 345.42 14.4787 344.508 15.3728L345.332 16.2133C346.024 15.5349 346.955 15.1549 347.924 15.1549V13.9779ZM344.449 15.4399L343.934 16.1265L344.876 16.8327L345.391 16.1461L344.449 15.4399ZM344.788 16.0328L344.187 15.5179L343.421 16.4115L344.022 16.9264L344.788 16.0328ZM344.237 15.5653C343.787 15.0791 343.241 14.6923 342.633 14.4298L342.167 15.5103C342.624 15.7077 343.034 15.9985 343.372 16.364L344.237 15.5653ZM342.633 14.4298C342.026 14.1674 341.37 14.0351 340.708 14.0414L340.719 15.2183C341.217 15.2136 341.71 15.313 342.167 15.5103L342.633 14.4298ZM340.708 14.0414C340.046 14.0478 339.392 14.1927 338.79 14.4668L339.277 15.5381C339.73 15.332 340.221 15.2231 340.719 15.2183L340.708 14.0414ZM338.79 14.4668C338.187 14.7408 337.649 15.1381 337.209 15.6329L338.089 16.4148C338.419 16.0428 338.824 15.7442 339.277 15.5381L338.79 14.4668ZM337.209 15.6329C336.769 16.1276 336.438 16.709 336.236 17.3396L337.357 17.6979C337.509 17.2239 337.758 16.7868 338.089 16.4148L337.209 15.6329ZM336.236 17.3396C336.035 17.9702 335.967 18.636 336.039 19.2941L337.209 19.1674C337.155 18.6726 337.206 18.172 337.357 17.6979L336.236 17.3396ZM336.039 19.2941C336.11 19.9523 336.318 20.5882 336.65 21.161L337.669 20.5709C337.419 20.1403 337.262 19.6622 337.209 19.1674L336.039 19.2941ZM336.65 21.161C336.982 21.7338 337.43 22.2307 337.966 22.6199L338.658 21.6677C338.255 21.3751 337.918 21.0015 337.669 20.5709L336.65 21.161ZM337.902 22.5657L344.081 28.5732L344.901 27.7293L338.722 21.7218L337.902 22.5657ZM344.901 28.5732L351.08 22.5657L350.26 21.7218L344.081 27.7293L344.901 28.5732ZM351.086 22.5599C352.212 21.4336 352.757 20.1338 352.782 18.851C352.806 17.5732 352.314 16.3585 351.451 15.3994L350.576 16.1867C351.257 16.9439 351.623 17.8748 351.605 18.8284C351.587 19.7769 351.187 20.7943 350.254 21.7277L351.086 22.5599Z" fill="url(#paint2_linear_1244_3199)" mask="url(#path-3-outside-2_1244_3199)"/>
</g>
</g>
<path d="M17.5299 105.584V88.38C17.5299 87.346 18.2559 86.774 19.2899 86.774C20.3239 86.774 21.0499 87.346 21.0499 88.38V105.584C21.0499 106.618 20.3239 107.19 19.2899 107.19C18.2559 107.19 17.5299 106.618 17.5299 105.584ZM5.45194 87.742H12.0739C13.5039 87.742 14.2299 88.446 14.2299 89.876V93.99C14.2299 95.42 13.5039 96.124 12.0739 96.124H7.69594C7.47594 96.124 7.38794 96.212 7.38794 96.432V99.292C7.38794 99.512 7.47594 99.6 7.69594 99.6H8.37794C10.5999 99.6 12.1399 99.468 14.0319 99.204C14.8679 99.094 15.5279 99.358 15.6819 100.26C15.8579 101.162 15.3079 101.778 14.4719 101.932C12.3819 102.262 10.4239 102.394 8.06994 102.394H6.13394C4.70394 102.394 3.95594 101.69 3.95594 100.26V95.508C3.95594 94.078 4.79194 93.374 6.22194 93.374H10.5119C10.7319 93.374 10.8199 93.308 10.8199 93.044V90.866C10.8199 90.646 10.7319 90.536 10.5119 90.536H5.45194C4.59394 90.536 3.95594 90.052 3.95594 89.15C3.95594 88.226 4.59394 87.742 5.45194 87.742ZM38.6491 105.584V88.38C38.6491 87.346 39.3751 86.774 40.4091 86.774C41.4431 86.774 42.1691 87.346 42.1691 88.38V105.584C42.1691 106.618 41.4431 107.19 40.4091 107.19C39.3751 107.19 38.6491 106.618 38.6491 105.584ZM29.5191 102.394H27.2531C25.8011 102.394 25.0751 101.668 25.0751 100.238V89.898C25.0751 88.468 25.8011 87.742 27.2531 87.742H33.7651C34.6231 87.742 35.2391 88.226 35.2391 89.15C35.2391 90.052 34.6231 90.536 33.7651 90.536H28.8811C28.5731 90.536 28.5071 90.602 28.5071 90.91V93.418H33.6331C34.4911 93.418 35.1291 93.88 35.1291 94.782C35.1291 95.706 34.4911 96.168 33.6331 96.168H28.5071V99.204C28.5071 99.512 28.5731 99.6 28.8811 99.6H29.8931C31.7631 99.6 33.6111 99.402 35.1511 99.182C35.9871 99.072 36.6691 99.314 36.8451 100.216C37.0211 101.14 36.4271 101.756 35.5911 101.91C33.9851 102.196 31.3891 102.394 29.5191 102.394ZM46.2602 92.494C46.2602 89.436 48.7242 87.368 51.8922 87.368C55.0602 87.368 57.5242 89.436 57.5242 92.494C57.5242 95.046 55.8742 96.85 53.5642 97.422V100.766C54.6862 100.7 55.7422 100.612 56.9742 100.458C57.8102 100.348 58.4042 100.766 58.5582 101.536C58.6902 102.24 58.3822 103.054 57.6342 103.252C55.8742 103.692 53.4102 103.736 51.5402 103.736H46.6562C45.7322 103.736 45.1162 103.208 45.1162 102.262C45.1162 101.338 45.7322 100.788 46.6562 100.788H50.2202V97.422C47.8662 96.85 46.2602 95.046 46.2602 92.494ZM59.3282 105.584V88.38C59.3282 87.346 60.0542 86.774 61.0882 86.774C62.1222 86.774 62.8482 87.346 62.8482 88.38V93.792H64.3222C65.2462 93.792 65.8842 94.276 65.8842 95.288C65.8842 96.3 65.2462 96.784 64.3222 96.784H62.8482V105.584C62.8482 106.618 62.1222 107.19 61.0882 107.19C60.0542 107.19 59.3282 106.618 59.3282 105.584ZM49.7142 92.494C49.7142 93.77 50.6162 94.738 51.8922 94.738C53.1682 94.738 54.0702 93.77 54.0702 92.494C54.0702 91.218 53.1682 90.25 51.8922 90.25C50.6162 90.25 49.7142 91.218 49.7142 92.494ZM87.8842 107.058H77.8302C76.4002 107.058 75.8282 106.53 75.8282 105.1V101.712C75.8282 100.282 76.4002 99.776 77.8302 99.776H87.8842C89.3142 99.776 89.8642 100.282 89.8642 101.712V105.1C89.8642 106.53 89.3142 107.058 87.8842 107.058ZM73.6502 95.068C73.6502 92.582 75.9602 91.328 79.0182 91.328C82.0762 91.328 84.3862 92.582 84.3862 95.068C84.3862 97.554 82.0762 98.808 79.0182 98.808C75.9602 98.808 73.6502 97.554 73.6502 95.068ZM86.3442 97.07V88.358C86.3442 87.324 87.0702 86.774 88.1042 86.774C89.1382 86.774 89.8642 87.324 89.8642 88.358V91.24H91.3822C92.3062 91.24 92.9662 91.702 92.9662 92.692C92.9662 93.682 92.3062 94.144 91.3822 94.144H89.8642V97.07C89.8642 98.104 89.1382 98.676 88.1042 98.676C87.0702 98.676 86.3442 98.104 86.3442 97.07ZM83.6382 90.756H74.1782C73.1882 90.756 72.5722 90.448 72.5722 89.458C72.5722 88.468 73.1882 88.16 74.1782 88.16H77.3682V87.522C77.3682 86.532 78.0282 86.004 79.0182 86.004C80.0082 86.004 80.6682 86.532 80.6682 87.522V88.16H83.6382C84.6282 88.16 85.2442 88.468 85.2442 89.458C85.2442 90.448 84.6282 90.756 83.6382 90.756ZM86.2122 102.416H79.4802C79.3482 102.416 79.2602 102.504 79.2602 102.636V103.978C79.2602 104.11 79.3482 104.418 79.4802 104.418H86.2122C86.3442 104.418 86.4322 104.11 86.4322 103.978V102.636C86.4322 102.504 86.3442 102.416 86.2122 102.416ZM81.0642 95.068C81.0642 94.188 80.1182 93.814 79.0182 93.814C77.9622 93.814 76.9722 94.188 76.9722 95.068C76.9722 95.948 77.9622 96.322 79.0182 96.322C80.1182 96.322 81.0642 95.948 81.0642 95.068ZM99.2962 101.074C101.056 97.884 101.848 94.408 101.848 91.394V90.888C101.848 90.734 101.76 90.668 101.628 90.668H101.078C100.154 90.668 99.9122 90.162 99.9122 89.238C99.9122 88.314 100.154 87.808 101.078 87.808H102.86C104.18 87.808 104.686 88.38 104.686 89.656V90.492C104.686 91.438 104.62 92.494 104.51 93.572H106.072V88.49C106.072 87.5 106.534 86.994 107.524 86.994C108.514 86.994 108.976 87.5 108.976 88.49V105.056C108.976 106.046 108.514 106.552 107.524 106.552C106.534 106.552 106.072 106.046 106.072 105.056V96.3H104.092C103.608 98.698 102.816 101.052 101.584 102.768C101.276 103.208 100.33 103.516 99.5822 102.988C98.7902 102.438 99.0542 101.514 99.2962 101.074ZM112.98 88.292V105.672C112.98 106.662 112.518 107.19 111.528 107.19C110.538 107.19 110.076 106.662 110.076 105.672V88.292C110.076 87.302 110.538 86.774 111.528 86.774C112.518 86.774 112.98 87.302 112.98 88.292ZM96.5682 90.668H95.9302C95.0062 90.668 94.4562 90.162 94.4562 89.238C94.4562 88.314 95.0062 87.808 95.9302 87.808H97.9762C99.2302 87.808 99.6042 88.402 99.6042 89.634V90.492C99.6042 94.32 98.6142 98.324 96.3042 101.404C95.9742 101.844 95.0722 102.174 94.3242 101.624C93.5542 101.052 93.7082 100.15 94.0162 99.732C95.6662 97.4 96.7662 94.342 96.7662 91.328V90.888C96.7662 90.712 96.7222 90.668 96.5682 90.668ZM121.637 102.966C118.447 102.966 116.247 101.03 116.247 97.84C116.247 94.65 118.447 92.714 121.637 92.714C124.827 92.714 127.027 94.65 127.027 97.84C127.027 101.03 124.827 102.966 121.637 102.966ZM129.293 105.584V88.38C129.293 87.346 130.019 86.774 131.053 86.774C132.087 86.774 132.813 87.346 132.813 88.38V94.386H134.375C135.299 94.386 135.937 94.892 135.937 95.904C135.937 96.894 135.299 97.4 134.375 97.4H132.813V105.584C132.813 106.618 132.087 107.19 131.053 107.19C130.019 107.19 129.293 106.618 129.293 105.584ZM119.899 89.348V87.94C119.899 86.884 120.581 86.334 121.637 86.334C122.693 86.334 123.397 86.884 123.397 87.94V89.348H126.323C127.313 89.348 127.841 89.898 127.841 90.712C127.841 91.526 127.313 92.076 126.323 92.076H116.753C115.763 92.076 115.235 91.526 115.235 90.712C115.235 89.898 115.763 89.348 116.753 89.348H119.899ZM121.637 95.398C120.317 95.398 119.635 96.52 119.635 97.84C119.635 99.16 120.317 100.282 121.637 100.282C122.957 100.282 123.639 99.16 123.639 97.84C123.639 96.52 122.957 95.398 121.637 95.398ZM139.429 105.056V101.822C139.429 100.832 140.155 100.37 141.145 100.37C142.135 100.37 142.883 100.832 142.883 101.822V103.912C142.883 104.11 142.949 104.154 143.125 104.154H153.025C154.015 104.154 154.587 104.572 154.587 105.562C154.587 106.552 154.015 106.948 153.025 106.948H141.321C140.001 106.948 139.429 106.376 139.429 105.056ZM154.961 99.138H138.505C137.514 99.138 136.899 98.83 136.899 97.84C136.899 96.85 137.514 96.52 138.505 96.52H154.961C155.951 96.52 156.567 96.85 156.567 97.84C156.567 98.83 155.951 99.138 154.961 99.138ZM142.971 88.578V91.79C142.971 91.988 143.015 92.032 143.235 92.032H152.673C153.597 92.032 154.257 92.516 154.257 93.44C154.257 94.364 153.597 94.848 152.673 94.848H141.673C140.177 94.848 139.539 94.254 139.539 92.758V88.578C139.539 87.566 140.199 86.972 141.255 86.972C142.311 86.972 142.971 87.566 142.971 88.578ZM165.746 97.202H182.268C183.214 97.202 183.83 97.554 183.83 98.5C183.83 99.446 183.214 99.798 182.268 99.798H165.746C164.8 99.798 164.162 99.446 164.162 98.5C164.162 97.554 164.8 97.202 165.746 97.202ZM167.836 100.876H179.694C181.146 100.876 181.63 101.316 181.63 102.746V105.694C181.63 106.486 181.08 107.19 179.892 107.19C178.704 107.19 178.154 106.486 178.154 105.694V103.758C178.154 103.56 178.132 103.494 177.912 103.494H167.836C166.89 103.494 166.252 103.142 166.252 102.196C166.252 101.25 166.89 100.876 167.836 100.876ZM179.606 89.436H170.234C169.992 89.436 169.926 89.502 169.926 89.766V90.316H179.408C180.332 90.316 180.97 90.602 180.97 91.526C180.97 92.45 180.332 92.736 179.408 92.736H169.926V93.352C169.926 93.594 169.992 93.66 170.234 93.66H179.936C180.86 93.66 181.52 93.946 181.52 94.87C181.52 95.794 180.86 96.168 179.936 96.168H168.76C167.33 96.168 166.802 95.684 166.802 94.254V88.864C166.802 87.434 167.33 86.928 168.76 86.928H179.606C180.53 86.928 181.19 87.258 181.19 88.182C181.19 89.106 180.53 89.436 179.606 89.436ZM186.42 94.43V88.6C186.42 87.566 186.992 87.016 188.026 87.016C189.06 87.016 189.632 87.566 189.632 88.6V89.634H193.702V88.6C193.702 87.566 194.252 87.016 195.286 87.016C196.32 87.016 196.87 87.566 196.87 88.6V88.952H199.862V88.38C199.862 87.346 200.588 86.774 201.622 86.774C202.656 86.774 203.382 87.346 203.382 88.38V95.42C203.382 96.454 202.656 97.026 201.622 97.026C200.588 97.026 199.862 96.454 199.862 95.42V94.694H196.848C196.782 95.926 196.188 96.432 194.846 96.432H188.466C187.036 96.432 186.42 95.86 186.42 94.43ZM199.906 100.304H190.38C189.5 100.304 189.016 99.952 189.016 99.072C189.016 98.192 189.5 97.84 190.38 97.84H201.578C203.008 97.84 203.382 98.192 203.382 99.6V101.778C203.382 103.208 202.92 103.626 201.49 103.626H192.47C192.382 103.626 192.316 103.67 192.316 103.78V104.572C192.316 104.682 192.382 104.704 192.47 104.704H202.436C203.316 104.704 203.822 105.078 203.822 105.958C203.822 106.838 203.316 107.19 202.436 107.19H190.886C189.456 107.19 189.016 106.772 189.016 105.342V103.032C189.016 101.602 189.434 101.206 190.864 101.206H199.906C200.016 101.206 200.082 101.162 200.082 101.052V100.458C200.082 100.348 200.016 100.304 199.906 100.304ZM189.632 92.054V93.77C189.632 93.924 189.698 94.012 189.852 94.012H193.482C193.636 94.012 193.702 93.924 193.702 93.77V92.054H189.632ZM196.87 91.262V92.362H199.862V91.262H196.87ZM207.605 95.574C207.605 92.934 209.915 91.68 212.973 91.68C216.031 91.68 218.341 92.934 218.341 95.574C218.341 98.214 216.031 99.468 212.973 99.468C209.915 99.468 207.605 98.214 207.605 95.574ZM220.299 99.93V88.358C220.299 87.324 221.025 86.774 222.059 86.774C223.093 86.774 223.819 87.324 223.819 88.358V92.494H225.337C226.261 92.494 226.921 92.956 226.921 93.946C226.921 94.936 226.261 95.398 225.337 95.398H223.819V99.93C223.819 100.964 223.093 101.536 222.059 101.536C221.025 101.536 220.299 100.964 220.299 99.93ZM213.347 102.086V103.67C213.347 103.978 213.413 104.044 213.721 104.044H222.873C223.797 104.044 224.369 104.572 224.369 105.496C224.369 106.42 223.797 106.948 222.873 106.948H211.763C210.333 106.948 209.783 106.42 209.783 105.012V102.086C209.783 101.03 210.509 100.414 211.565 100.414C212.621 100.414 213.347 101.03 213.347 102.086ZM217.593 91.064H208.133C207.143 91.064 206.527 90.712 206.527 89.722C206.527 88.732 207.143 88.38 208.133 88.38H211.323V87.522C211.323 86.532 211.983 86.004 212.973 86.004C213.963 86.004 214.623 86.532 214.623 87.522V88.38H217.593C218.583 88.38 219.199 88.732 219.199 89.722C219.199 90.712 218.583 91.064 217.593 91.064ZM214.975 95.574C214.975 94.628 213.963 94.21 212.973 94.21C211.983 94.21 210.971 94.628 210.971 95.574C210.971 96.52 211.983 96.938 212.973 96.938C213.963 96.938 214.975 96.52 214.975 95.574ZM242.195 99.094H235.463C234.517 99.094 233.879 98.632 233.879 97.686C233.879 96.74 234.517 96.3 235.463 96.3H251.985C252.931 96.3 253.547 96.74 253.547 97.686C253.547 98.632 252.931 99.094 251.985 99.094H245.671V101.206C245.671 102.196 244.923 102.702 243.933 102.702C242.943 102.702 242.195 102.196 242.195 101.206V99.094ZM243.713 86.818C244.703 86.818 245.451 87.258 245.451 88.248V88.974C245.451 90.316 247.981 91.614 250.555 92.494C251.435 92.802 251.875 93.506 251.655 94.298C251.435 95.09 250.709 95.552 249.675 95.332C247.761 94.936 245.077 93.638 243.713 92.318C242.349 93.638 239.665 94.936 237.751 95.332C236.717 95.552 235.991 95.09 235.771 94.298C235.551 93.506 235.991 92.802 236.871 92.494C239.445 91.614 241.975 90.316 241.975 88.974V88.248C241.975 87.258 242.723 86.818 243.713 86.818ZM236.409 105.056V101.932C236.409 100.942 237.135 100.48 238.125 100.48C239.115 100.48 239.863 100.942 239.863 101.932V103.912C239.863 104.11 239.929 104.154 240.105 104.154H250.005C250.995 104.154 251.567 104.572 251.567 105.562C251.567 106.552 250.995 106.948 250.005 106.948H238.301C236.981 106.948 236.409 106.376 236.409 105.056ZM266.367 88.952V90.184C266.367 94.386 262.847 97.884 257.809 99.006C256.929 99.204 256.115 98.918 255.873 98.016C255.609 97.114 256.071 96.454 256.973 96.234C260.427 95.354 263.023 93 263.023 90.646V90.404C263.023 90.096 262.935 89.964 262.627 89.964H257.655C256.731 89.964 256.137 89.524 256.137 88.6C256.137 87.676 256.731 87.236 257.655 87.236H264.409C265.751 87.236 266.367 87.874 266.367 88.952ZM260.163 99.314C261.197 99.314 261.945 99.93 261.945 100.986V103.67C261.945 103.978 262.011 104.044 262.319 104.044H271.471C272.395 104.044 272.967 104.572 272.967 105.496C272.967 106.42 272.395 106.948 271.471 106.948H260.383C258.953 106.948 258.381 106.398 258.381 105.012V100.986C258.381 99.93 259.129 99.314 260.163 99.314ZM268.897 99.27V88.358C268.897 87.324 269.623 86.774 270.657 86.774C271.691 86.774 272.417 87.324 272.417 88.358V91.394H273.935C274.859 91.394 275.519 91.856 275.519 92.846C275.519 93.836 274.859 94.298 273.935 94.298H272.417V99.27C272.417 100.304 271.691 100.876 270.657 100.876C269.623 100.876 268.897 100.304 268.897 99.27ZM276.789 105.166L277.317 102.768C277.559 101.712 278.329 101.228 279.385 101.492C280.441 101.756 280.837 102.438 280.595 103.494L280.023 105.936C279.781 106.992 279.011 107.454 277.933 107.19C276.877 106.926 276.547 106.222 276.789 105.166ZM303.81 100.524H294.504C293.624 100.524 293.14 100.172 293.14 99.292C293.14 98.412 293.624 98.06 294.504 98.06H305.482C306.912 98.06 307.286 98.412 307.286 99.82V101.954C307.286 103.384 306.824 103.802 305.394 103.802H296.594C296.506 103.802 296.44 103.846 296.44 103.956V104.572C296.44 104.682 296.506 104.704 296.594 104.704H306.34C307.22 104.704 307.726 105.078 307.726 105.958C307.726 106.838 307.22 107.19 306.34 107.19H295.01C293.58 107.19 293.14 106.772 293.14 105.342V103.208C293.14 101.778 293.558 101.382 294.988 101.382H303.81C303.92 101.382 303.986 101.338 303.986 101.228V100.678C303.986 100.568 303.92 100.524 303.81 100.524ZM298.068 88.116H300.532C301.522 88.116 302.138 88.512 302.138 89.502C302.138 90.492 301.522 90.888 300.532 90.888H298.046C298.068 92.516 299.762 93.308 301.632 94.276C302.534 94.76 302.754 95.596 302.27 96.388C301.808 97.136 300.84 97.07 299.96 96.74C298.64 96.234 297.364 95.398 296.418 94.496C295.538 95.53 294.24 96.41 292.876 97.07C291.996 97.488 291.028 97.466 290.566 96.718C290.082 95.926 290.302 95.112 291.204 94.606C293.14 93.55 294.746 92.516 294.79 90.888H292.194C291.204 90.888 290.588 90.492 290.588 89.502C290.588 88.512 291.204 88.116 292.194 88.116H294.768V87.412C294.768 86.422 295.428 85.894 296.418 85.894C297.408 85.894 298.068 86.422 298.068 87.412V88.116ZM303.766 95.64V88.358C303.766 87.324 304.492 86.774 305.526 86.774C306.56 86.774 307.286 87.324 307.286 88.358V90.404H308.804C309.728 90.404 310.388 90.866 310.388 91.856C310.388 92.846 309.728 93.308 308.804 93.308H307.286V95.64C307.286 96.674 306.56 97.246 305.526 97.246C304.492 97.246 303.766 96.674 303.766 95.64ZM314.364 94.034H313.528C312.604 94.034 312.01 93.704 312.01 92.78C312.01 91.856 312.604 91.526 313.528 91.526H314.364C315.75 91.526 317.246 91.482 319.182 91.328C319.204 91.174 319.226 91.02 319.226 90.866V90.404C319.226 90.096 319.138 89.964 318.83 89.964H313.858C312.934 89.964 312.34 89.524 312.34 88.6C312.34 87.676 312.934 87.236 313.858 87.236H320.612C321.954 87.236 322.57 87.874 322.57 88.952V90.404C322.57 94.496 318.962 97.576 314.012 98.786C313.132 99.006 312.318 98.742 312.076 97.84C311.812 96.938 312.274 96.234 313.176 96.014C315.09 95.552 316.696 94.804 317.752 93.836C316.63 93.946 315.508 94.034 314.364 94.034ZM325.1 105.584V102.262C325.1 102.064 325.078 102.02 324.858 102.02H315.662C314.804 102.02 314.122 101.492 314.122 100.568C314.122 99.644 314.804 99.116 315.662 99.116H326.662C328.114 99.116 328.62 99.578 328.62 101.03V105.584C328.62 106.618 327.894 107.19 326.86 107.19C325.826 107.19 325.1 106.618 325.1 105.584ZM325.1 96.41V88.358C325.1 87.324 325.826 86.774 326.86 86.774C327.894 86.774 328.62 87.324 328.62 88.358V90.8H330.138C331.062 90.8 331.722 91.262 331.722 92.252C331.722 93.242 331.062 93.704 330.138 93.704H328.62V96.41C328.62 97.444 327.894 98.016 326.86 98.016C325.826 98.016 325.1 97.444 325.1 96.41Z" fill="#FFC629"/>
<defs>
<filter id="filter0_d_1244_3199" x="323.029" y="2.5408" width="41.0477" height="41.0477" filterUnits="userSpaceOnUse" color-interpolation-filters="sRGB">
<feFlood flood-opacity="0" result="BackgroundImageFix"/>
<feColorMatrix in="SourceAlpha" type="matrix" values="0 0 0 0 0 0 0 0 0 0 0 0 0 0 0 0 0 0 127 0" result="hardAlpha"/>
<feOffset dy="1.61545"/>
<feGaussianBlur stdDeviation="1.61545"/>
<feComposite in2="hardAlpha" operator="out"/>
<feColorMatrix type="matrix" values="0 0 0 0 0 0 0 0 0 0 0 0 0 0 0 0 0 0 0.1 0"/>
<feBlend mode="normal" in2="BackgroundImageFix" result="effect1_dropShadow_1244_3199"/>
<feBlend mode="normal" in="SourceGraphic" in2="effect1_dropShadow_1244_3199" result="shape"/>
</filter>
<linearGradient id="paint0_linear_1244_3199" x1="329.202" y1="4.90493" x2="355.684" y2="35.8004" gradientUnits="userSpaceOnUse">
<stop stop-color="white" stop-opacity="0.9"/>
<stop offset="1" stop-color="white" stop-opacity="0.55"/>
</linearGradient>
<linearGradient id="paint1_linear_1244_3199" x1="335.837" y1="11.1702" x2="353.132" y2="11.5172" gradientUnits="userSpaceOnUse">
<stop stop-color="#FFD382"/>
<stop offset="0.5" stop-color="#FFCF4B"/>
<stop offset="1" stop-color="#FFD280"/>
</linearGradient>
<linearGradient id="paint2_linear_1244_3199" x1="335.837" y1="11.1702" x2="353.132" y2="11.5172" gradientUnits="userSpaceOnUse">
<stop stop-color="#FFE0A7"/>
<stop offset="0.5" stop-color="#FFDD7F"/>
<stop offset="1" stop-color="#FFE1A9"/>
</linearGradient>
<clipPath id="clip0_1244_3199">
<rect width="41.194" height="41.194" fill="white" transform="translate(323.807)"/>
</clipPath>
</defs>
</svg>
