<svg width="1728" height="1117" viewBox="0 0 1728 1117" fill="none" xmlns="http://www.w3.org/2000/svg">
<g clip-path="url(#clip0_1923_4129)">
<rect width="1728" height="1117" fill="url(#paint0_linear_1923_4129)"/>
<path opacity="0.04" d="M1700.95 786.873L1700.88 786.827L1700.95 786.873C1712.28 771.433 1717.95 763.756 1725.99 759.115C1734.03 754.475 1743.51 753.405 1762.55 751.307L1762.54 751.226L1762.55 751.307L1779.9 749.355C1813.38 745.632 1838.5 742.834 1856.55 738.08C1874.59 733.326 1885.59 726.608 1890.8 715.026C1896 703.444 1893.68 690.846 1885.16 674.357C1876.65 657.892 1861.96 637.527 1842.39 610.389L1842.31 610.274L1832.14 596.21C1820.99 580.763 1815.43 573.047 1813.52 564.016C1811.63 555.03 1813.6 545.712 1817.53 527.123L1817.56 526.977L1821.17 509.965C1828.14 477.078 1833.36 452.403 1834.49 433.845C1835.63 415.286 1832.67 402.82 1823.26 394.373L1823.22 394.427L1823.26 394.373C1813.84 385.922 1801.09 384.297 1782.68 387.36C1764.29 390.42 1740.24 398.165 1708.17 408.49L1708.1 408.512L1691.5 413.857C1673.23 419.752 1664.12 422.691 1654.92 421.743C1645.73 420.795 1637.45 416.087 1620.85 406.644L1605.74 398.057L1605.64 398C1576.5 381.437 1554.64 369.007 1537.31 362.301C1519.96 355.586 1507.14 354.599 1496.12 360.964C1485.09 367.329 1479.54 378.926 1476.68 397.306C1473.82 415.665 1473.65 440.816 1473.43 474.332L1473.43 474.445L1473.31 491.825L1473.39 491.826L1473.31 491.825L1473.31 492.15C1473.19 511.03 1473.13 520.481 1469.35 528.883C1465.55 537.333 1458.47 543.743 1444.25 556.605L1431.32 568.309C1406.32 590.932 1387.55 607.914 1375.69 622.327C1363.83 636.741 1358.86 648.605 1361.47 660.987C1364.09 673.37 1373.41 682.166 1390.05 690.464C1406.69 698.761 1430.67 706.571 1462.63 716.971L1479.18 722.371L1479.2 722.294L1479.18 722.371L1479.19 722.377C1497.33 728.273 1506.41 731.225 1513.25 737.406L1513.25 737.406C1520.13 743.54 1524.03 752.217 1531.84 769.617L1538.93 785.428L1538.99 785.558C1552.7 816.079 1562.99 838.983 1573 854.582C1583.03 870.204 1592.79 878.519 1605.44 879.808C1618.05 881.089 1629.36 874.919 1642.5 861.663C1655.64 848.407 1670.63 828.046 1690.6 800.912L1700.95 786.873Z" fill="url(#paint1_linear_1923_4129)" stroke="url(#paint2_linear_1923_4129)" stroke-width="0.163164"/>
<path opacity="0.08" d="M411.259 633.347L411.179 633.347L411.259 633.347C411.265 626.568 407.359 620.905 399.583 614.669C391.813 608.438 380.16 601.621 364.632 592.536L364.596 592.515L356.557 587.812C347.7 582.637 343.293 580.061 340.401 576.072C337.51 572.083 336.436 567.12 334.282 557.148L332.318 548.075L332.304 548.012C328.52 530.519 325.679 517.388 322.176 508.1C318.669 498.801 314.49 493.333 308.013 491.207C301.537 489.08 294.93 491.007 286.593 496.418C278.267 501.821 268.195 510.713 254.779 522.559L254.73 522.602L247.771 528.745L247.825 528.806L247.771 528.745L247.649 528.852C240.084 535.536 236.307 538.872 231.625 540.359C226.918 541.853 221.855 541.321 211.668 540.242L202.405 539.265C184.496 537.369 171.05 535.948 161.086 536.361C151.121 536.774 144.614 539.022 140.607 544.488C136.6 549.954 136.423 556.812 139.048 566.393C141.673 575.974 147.105 588.302 154.347 604.723L158.093 613.234L158.166 613.202L158.093 613.234C162.209 622.561 164.265 627.219 164.241 632.135L164.241 632.135C164.249 637.047 162.189 641.681 158.047 650.992L154.277 659.443L154.352 659.476L154.277 659.443L154.245 659.516C146.983 675.842 141.532 688.098 138.888 697.64C136.24 707.198 136.402 714.057 140.405 719.565C144.398 725.056 150.896 727.361 160.856 727.87C170.815 728.378 184.261 727.092 202.173 725.378L211.444 724.494L211.444 724.494C221.63 723.507 226.695 723.03 231.395 724.573C236.095 726.116 239.892 729.503 247.511 736.335L247.511 736.336L254.468 742.547C267.871 754.543 277.934 763.547 286.257 769.039C294.581 774.531 301.185 776.524 307.664 774.465C314.144 772.405 318.336 766.979 321.866 757.713C325.391 748.462 328.265 735.36 332.094 717.906L332.111 717.829L332.031 717.811L332.111 717.829L334.089 708.775C336.267 698.833 337.355 693.88 340.263 689.911C343.161 685.965 347.565 683.434 356.372 678.372L356.432 678.338L364.489 673.716L364.448 673.646L364.489 673.716C380.057 664.777 391.741 658.065 399.534 651.904C407.327 645.743 411.248 640.118 411.259 633.347Z" fill="url(#paint3_linear_1923_4129)" stroke="url(#paint4_linear_1923_4129)" stroke-width="0.163164"/>
<path opacity="0.08" d="M1177.3 -9.65205L1177.38 -9.66927C1178.42 -4.85276 1178.94 -2.46845 1180.33 -0.552104C1181.72 1.36421 1183.83 2.60283 1188.11 5.10172L1188.07 5.16766L1188.11 5.10175L1191.99 7.37166L1192.01 7.38385C1199.5 11.7664 1205.13 15.0577 1208.88 18.0667C1212.64 21.0789 1214.53 23.8228 1214.53 27.1141C1214.53 30.4013 1212.62 33.1267 1208.86 36.1028C1205.09 39.0784 1199.45 42.3192 1191.94 46.6329L1191.9 46.5626L1191.94 46.6329L1188.05 48.8632L1188.05 48.8632L1188.03 48.8732C1183.77 51.3221 1181.65 52.5394 1180.26 54.437C1180.26 54.437 1180.26 54.437 1180.26 54.437L1177.3 -9.65205ZM1177.3 -9.65205L1177.38 -9.66931L1176.43 -14.0477L1176.42 -14.0824C1174.6 -22.521 1173.23 -28.8607 1171.54 -33.3458C1169.84 -37.8379 1167.82 -40.4917 1164.67 -41.5239C1161.53 -42.5561 1158.33 -41.618 1154.3 -39.0043C1150.28 -36.3947 1145.42 -32.1017 1138.95 -26.3874L1138.92 -26.364L1135.56 -23.3994L1135.56 -23.3994L1135.51 -23.3557C1131.85 -20.1224 1130.03 -18.5176 1127.78 -17.8029C1125.52 -17.0849 1123.09 -17.3401 1118.17 -17.8609L1118.16 -17.7797L1118.17 -17.8609L1113.7 -18.3325C1105.06 -19.2474 1098.56 -19.9338 1093.75 -19.7342C1088.94 -19.5347 1085.78 -18.4483 1083.84 -15.7948C1081.89 -13.1412 1081.81 -9.81537 1083.08 -5.1871C1084.34 -0.55956 1086.97 5.39314 1090.46 13.317L1177.3 -9.65205Z" fill="url(#paint5_linear_1923_4129)" stroke="url(#paint6_linear_1923_4129)" stroke-width="0.163164"/>
<path opacity="0.08" d="M79.0957 913.114L79.1205 913.192L79.0956 913.114C70.6674 915.834 66.4758 917.185 62.2478 916.749C58.0197 916.313 54.2116 914.148 46.5548 909.792L39.5877 905.833L39.538 905.805C26.1069 898.17 16.0233 892.437 8.03124 889.344C0.0284904 886.246 -5.89893 885.786 -10.9996 888.731C-16.1002 891.675 -18.665 897.039 -19.9838 905.518C-21.3009 913.986 -21.3784 925.585 -21.4817 941.035L-21.4821 941.092L-21.5367 949.105L-21.4551 949.106L-21.5367 949.105L-21.5376 949.242C-21.5932 957.959 -21.621 962.308 -23.3589 966.174C-25.1061 970.059 -28.3611 973.008 -34.9196 978.941L-34.8669 978.999L-34.9196 978.941L-40.8808 984.337C-52.4105 994.767 -61.066 1002.6 -66.5371 1009.25C-72.0086 1015.9 -74.3108 1021.38 -73.1001 1027.11C-71.8895 1032.84 -67.5759 1036.9 -59.8998 1040.73C-52.2244 1044.56 -41.1655 1048.16 -26.4326 1052.96L-18.8011 1055.45L-18.7774 1055.37L-18.801 1055.45C-10.4309 1058.17 -6.25312 1059.53 -3.10655 1062.37L-3.10616 1062.37C0.0558697 1065.19 1.85007 1069.18 5.45555 1077.21L8.72262 1084.5L8.79707 1084.46L8.72265 1084.5L8.75125 1084.56C15.0731 1098.63 19.8195 1109.19 24.4371 1116.39C29.0621 1123.59 33.5705 1127.44 39.4233 1128.04L39.4316 1127.96L39.4233 1128.04C45.2594 1128.63 50.4859 1125.77 56.5478 1119.66C62.6092 1113.54 69.5223 1104.15 78.7308 1091.64L83.4997 1085.17L83.4998 1085.17C88.7291 1078.05 91.3368 1074.52 95.0327 1072.38C98.7287 1070.25 103.09 1069.76 111.872 1068.79L111.873 1068.79L119.873 1067.89C135.306 1066.17 146.893 1064.88 155.218 1062.69C163.545 1060.5 168.633 1057.39 171.04 1052.04C173.447 1046.68 172.368 1040.85 168.439 1033.25C164.516 1025.65 157.741 1016.26 148.718 1003.75L148.677 1003.69L143.991 997.209C138.849 990.083 136.291 986.534 135.412 982.381C134.542 978.248 135.449 973.959 137.264 965.376L137.275 965.322L138.94 957.478L138.87 957.463L138.94 957.478C142.152 942.316 144.56 930.936 145.083 922.375C145.606 913.813 144.245 908.048 139.891 904.14L139.837 904.201L139.891 904.14C135.53 900.23 129.634 899.483 121.144 900.896C112.662 902.307 101.568 905.879 86.7849 910.639L86.7498 910.65L79.0957 913.114Z" fill="url(#paint7_linear_1923_4129)" stroke="url(#paint8_linear_1923_4129)" stroke-width="0.163164"/>
<path opacity="0.08" d="M649.98 991.895L649.983 991.966L649.98 991.895C641.566 992.319 637.384 992.528 633.608 991.087C629.832 989.646 626.866 986.721 620.904 980.834L615.478 975.481L615.439 975.443C604.979 965.122 597.126 957.373 590.544 952.563C583.954 947.747 578.62 945.864 573.207 947.314C567.795 948.764 564.117 953.062 560.818 960.528C557.523 967.984 554.596 978.622 550.698 992.79L550.684 992.842L548.661 1000.19L548.736 1000.21L548.661 1000.19L548.627 1000.32C546.429 1008.31 545.334 1012.3 542.786 1015.42C540.225 1018.56 536.509 1020.47 529.023 1024.31L529.06 1024.38L529.023 1024.31L522.218 1027.8C509.057 1034.54 499.177 1039.61 492.513 1044.37C485.849 1049.13 482.383 1053.6 482.084 1059.17C481.786 1064.73 484.75 1069.53 490.86 1074.93C496.97 1080.34 506.244 1086.37 518.599 1094.4L524.998 1098.57L525.039 1098.51L524.998 1098.57C532.018 1103.13 535.521 1105.41 537.711 1108.79L537.712 1108.79C539.922 1112.16 540.588 1116.27 541.925 1124.53L543.131 1132.03L543.205 1132.02L543.131 1132.03L543.142 1132.1C545.487 1146.58 547.247 1157.45 549.718 1165.2C552.194 1172.96 555.389 1177.61 560.621 1179.6C565.839 1181.58 571.345 1180.24 578.42 1176.11C585.495 1171.99 594.158 1165.06 605.698 1155.83L611.673 1151.06L611.673 1151.06C618.231 1145.81 621.495 1143.2 625.415 1142.15C629.335 1141.1 633.462 1141.72 641.769 1143L641.769 1143L649.341 1144.14C663.943 1146.36 674.906 1148.03 683.095 1148.06C691.285 1148.1 696.725 1146.5 700.257 1142.17C703.789 1137.84 704.231 1132.22 702.493 1124.26C700.759 1116.32 696.847 1106.02 691.636 1092.31L691.613 1092.25L691.545 1092.27L691.613 1092.25L688.904 1085.13C685.933 1077.32 684.457 1073.43 684.672 1069.4C684.89 1065.39 686.779 1061.67 690.559 1054.24L690.583 1054.19L694.044 1047.39L693.976 1047.36L694.044 1047.39C700.727 1034.25 705.741 1024.39 708.329 1016.65C710.917 1008.92 711.087 1003.28 708.048 998.619C705.002 993.951 699.768 991.813 691.62 991.021C683.479 990.23 672.407 990.78 657.654 991.514L657.618 991.516L649.98 991.895Z" fill="url(#paint9_linear_1923_4129)" stroke="url(#paint10_linear_1923_4129)" stroke-width="0.163164"/>
<path opacity="0.04" d="M202.57 229.648L202.543 229.581L202.57 229.648C220.387 222.339 233.757 216.852 242.912 211.402C252.069 205.951 257.03 200.524 257.997 193.329C258.96 186.124 255.608 179.552 248.22 171.824C240.838 164.102 229.41 155.208 214.18 143.356L214.146 143.329L206.261 137.193C197.574 130.441 193.25 127.079 190.738 122.428C188.226 117.776 187.784 112.347 186.901 101.439L186.094 91.5142L186.088 91.4452C184.533 72.3101 183.366 57.9465 180.953 47.5769C178.536 37.1939 174.865 30.7922 168.281 27.6182C161.697 24.4442 154.402 25.5592 144.774 30.1356C135.158 34.706 123.193 42.7393 107.255 53.4413L107.197 53.4797L98.9301 59.0291L98.9735 59.0938L98.9301 59.0292L98.7838 59.1275C89.7976 65.1651 85.3093 68.1807 80.12 69.1007C74.9023 70.0257 69.5928 68.744 58.9138 66.1597L58.8947 66.239L58.9138 66.1597L49.2021 63.813C30.4258 59.2686 16.3295 55.8596 5.6765 54.8924C-4.97719 53.9251 -12.2111 55.3973 -17.2415 60.6417C-22.2718 65.8861 -23.4284 73.1508 -21.99 83.7092C-20.5517 94.2668 -16.5153 108.141 -11.1328 126.625L-8.3513 136.204L-8.27295 136.181L-8.35128 136.204C-5.2912 146.701 -3.76215 151.947 -4.48126 157.172L-4.48132 157.172C-5.16655 162.398 -8.01188 167.035 -13.731 176.351L-18.9321 184.805L-18.8628 184.848L-18.9321 184.806L-18.9764 184.878C-29.0029 201.213 -36.5294 213.475 -40.6874 223.249C-44.8518 233.037 -45.6468 240.351 -42.1696 246.771C-38.6998 253.171 -32.1183 256.538 -21.5998 258.485C-11.082 260.432 3.39564 260.962 22.6844 261.667L32.6674 262.037C43.6373 262.425 49.092 262.633 53.8733 264.938C58.6547 267.243 62.2148 271.381 69.3509 279.721L69.4129 279.668L69.351 279.721L75.8717 287.308C88.4307 301.956 97.8593 312.95 105.934 319.965C114.009 326.98 120.748 330.03 127.926 328.755C135.104 327.48 140.326 322.304 145.388 312.95C150.442 303.611 155.347 290.085 161.882 272.067L161.911 271.987L161.835 271.959L161.911 271.987L165.292 262.639C169.012 252.375 170.868 247.26 174.522 243.45C178.161 239.661 183.202 237.591 193.281 233.453L193.35 233.424L202.57 229.648Z" fill="white" stroke="url(#paint11_linear_1923_4129)" stroke-width="0.163164"/>
<path opacity="0.04" d="M925.222 458.003C917.747 432.332 912.142 413.066 910.145 398.407C908.148 383.748 909.755 373.671 916.731 366.399C923.707 359.126 933.74 357.081 948.533 358.424C963.324 359.767 982.897 364.501 1008.97 370.812L1022.46 374.071L1022.44 374.143L1022.46 374.071C1037.29 377.659 1044.67 379.441 1051.92 378.155C1059.14 376.877 1065.38 372.685 1077.85 364.305L1078.06 364.164L1078.1 364.232L1078.06 364.164L1089.54 356.457L1089.62 356.405C1111.75 341.542 1128.37 330.386 1141.72 324.04C1155.09 317.686 1165.21 316.143 1174.34 320.544C1183.47 324.946 1188.56 333.824 1191.92 348.24C1195.27 362.639 1196.89 382.584 1199.05 409.161L1199.06 409.253L1200.18 423.036L1200.1 423.042L1200.18 423.036C1201.4 438.181 1202.02 445.73 1205.51 452.197C1209 458.664 1215.01 463.337 1227.08 472.712L1238.03 481.234L1238.07 481.27C1259.22 497.731 1275.09 510.081 1285.34 520.803C1295.6 531.533 1300.25 540.65 1298.91 550.641L1298.83 550.631L1298.91 550.641C1297.57 560.619 1290.69 568.148 1277.98 575.717C1265.27 583.285 1246.7 590.904 1221.96 601.054L1221.93 600.987L1221.96 601.054L1209.15 606.299L1209.05 606.342C1195.06 612.085 1188.05 614.962 1183 620.229C1177.92 625.527 1175.34 632.638 1170.17 646.888L1165.48 659.87L1165.44 659.978C1156.36 685.004 1149.55 703.786 1142.53 716.754C1135.5 729.741 1128.26 736.919 1118.3 738.686C1108.35 740.454 1099 736.226 1087.79 726.486C1076.58 716.747 1063.48 701.48 1046.04 681.138L1036.99 670.602L1037.05 670.549L1036.99 670.602C1027.08 659.021 1022.13 653.268 1015.48 650.063C1008.83 646.859 1001.25 646.57 986.02 646.032L972.156 645.518C945.368 644.539 925.265 643.802 910.661 641.1C896.057 638.396 886.929 633.722 882.117 624.848L882.189 624.809L882.117 624.848C877.295 615.946 878.395 605.8 884.177 592.209C889.95 578.638 900.402 561.61 914.328 538.923L914.387 538.825L914.443 538.86L914.387 538.825L921.61 527.084C929.551 514.149 933.508 507.702 934.46 500.437L934.46 500.437C935.46 493.174 933.335 485.883 929.087 471.314L929.085 471.305L929.162 471.282L929.085 471.305L925.222 458.003ZM925.222 458.003L925.3 457.98L925.222 458.003Z" fill="white" stroke="url(#paint12_linear_1923_4129)" stroke-width="0.163164"/>
<path opacity="0.04" d="M390.003 100.793C365.024 91.2584 346.281 84.0989 333.388 76.8434C320.494 69.5875 313.43 62.2241 311.842 52.2728C310.254 42.3215 314.679 33.0871 324.678 22.1039C334.677 11.1212 350.265 -1.62778 371.036 -18.6095L381.775 -27.3958L381.822 -27.338L381.775 -27.3958C393.585 -37.0521 399.462 -41.8615 402.815 -48.4214C406.149 -54.9445 406.572 -62.4482 407.419 -77.4504L407.433 -77.7037L407.515 -77.6991L407.433 -77.7037L408.218 -91.5093L408.223 -91.602C409.734 -118.223 410.867 -138.202 413.866 -152.678C416.869 -167.172 421.746 -176.172 430.766 -180.795C439.787 -185.418 449.941 -184.122 463.46 -178.096C476.963 -172.077 493.844 -161.331 516.336 -147.012L516.415 -146.962L528.081 -139.538L528.037 -139.469L528.081 -139.538C540.897 -131.374 547.285 -127.306 554.549 -126.188C561.813 -125.069 569.168 -127.041 583.923 -131L597.326 -134.587L597.383 -134.602C623.274 -141.531 642.699 -146.729 657.434 -148.43C672.181 -150.132 682.254 -148.334 689.415 -141.239L689.357 -141.181L689.415 -141.239C696.561 -134.148 698.412 -124.118 696.773 -109.414C695.134 -94.7109 690.003 -75.3099 683.161 -49.4553L683.092 -49.4738L683.161 -49.4553L679.615 -36.0808L679.586 -35.9708C675.722 -21.3515 673.787 -14.0283 674.933 -6.81637C676.091 0.431612 680.203 6.78053 688.448 19.4993L695.965 31.079L696.027 31.1753C710.502 53.5163 721.365 70.2836 727.469 83.7059C733.583 97.1484 734.932 107.257 730.333 116.261C725.735 125.264 716.721 130.166 702.188 133.227C687.656 136.288 667.582 137.512 640.835 139.14L626.969 140.001L626.964 139.919L626.969 140.001C611.755 140.911 604.181 141.385 597.614 144.75C591.046 148.116 586.239 153.988 576.616 165.807L567.839 176.551C550.889 197.318 538.169 212.902 527.199 222.914C516.229 232.927 506.993 237.384 497.013 235.864L497.026 235.783L497.013 235.864C487.005 234.335 479.579 227.335 472.233 214.521C464.898 201.727 457.63 183.117 447.946 158.32L447.904 158.214L447.965 158.19L447.904 158.214L442.902 145.368C437.383 131.23 434.63 124.184 429.413 119.039L429.412 119.039C424.225 113.858 417.129 111.152 402.949 105.745L402.941 105.742L402.969 105.667L402.941 105.742L390.003 100.793ZM390.003 100.793L390.032 100.716L390.003 100.793Z" fill="white" stroke="url(#paint13_linear_1923_4129)" stroke-width="0.163164"/>
<path opacity="0.08" d="M1529.42 1171.59L1529.43 1171.52L1529.42 1171.59L1542.58 1173.58C1567.94 1177.44 1586.98 1180.33 1601.2 1180.39C1615.42 1180.45 1624.85 1177.68 1630.97 1170.18C1637.09 1162.67 1637.86 1152.94 1634.84 1139.12C1631.83 1125.33 1625.03 1107.44 1615.98 1083.61L1615.94 1083.51L1611.24 1071.16C1606.08 1057.59 1603.51 1050.82 1603.88 1043.8C1604.26 1036.82 1607.55 1030.36 1614.11 1017.45L1614.16 1017.35L1620.17 1005.54C1631.78 982.719 1640.49 965.589 1644.98 952.154C1649.47 938.719 1649.76 928.956 1644.5 920.878L1644.43 920.92L1644.5 920.877C1639.22 912.793 1630.15 909.082 1616 907.706C1601.87 906.332 1582.64 907.288 1557 908.563L1556.95 908.566L1543.68 909.226C1529.07 909.961 1521.79 910.326 1515.21 907.818C1508.64 905.309 1503.48 900.215 1493.12 889.993L1483.7 880.694L1483.63 880.632C1465.46 862.699 1451.82 849.24 1440.39 840.888C1428.95 832.525 1419.7 829.266 1410.32 831.779C1400.95 834.291 1394.57 841.736 1388.84 854.7C1383.12 867.648 1378.04 886.124 1371.26 910.741L1371.24 910.827L1367.73 923.593L1367.66 923.826C1363.85 937.701 1361.94 944.639 1357.51 950.074C1353.05 955.539 1346.58 958.858 1333.58 965.521L1333.62 965.592L1333.58 965.521L1321.76 971.584C1298.9 983.3 1281.74 992.097 1270.17 1000.37C1258.59 1008.64 1252.59 1016.39 1252.07 1026.03C1251.56 1035.66 1256.69 1043.98 1267.3 1053.37C1277.91 1062.76 1294.01 1073.23 1315.48 1087.19L1326.59 1094.42L1326.64 1094.36L1326.59 1094.42L1326.6 1094.43C1338.79 1102.34 1344.88 1106.31 1348.7 1112.2L1348.7 1112.2C1352.55 1118.07 1353.7 1125.21 1356.03 1139.56L1358.12 1152.59L1358.14 1152.7C1362.21 1177.86 1365.27 1196.75 1369.56 1210.2C1373.86 1223.68 1379.4 1231.73 1388.47 1235.17L1388.49 1235.12L1388.47 1235.17C1397.5 1238.61 1407.05 1236.29 1419.33 1229.13C1431.62 1221.96 1446.66 1209.93 1466.71 1193.91L1477.09 1185.61L1477.04 1185.55L1477.09 1185.61C1488.48 1176.49 1494.16 1171.96 1500.99 1170.13C1507.81 1168.3 1515 1169.38 1529.42 1171.59Z" fill="url(#paint14_linear_1923_4129)" stroke="url(#paint15_linear_1923_4129)" stroke-width="0.163164"/>
</g>
<defs>
<linearGradient id="paint0_linear_1923_4129" x1="204.458" y1="-36.7088" x2="884.147" y2="1106.33" gradientUnits="userSpaceOnUse">
<stop stop-color="#4F89FF"/>
<stop offset="0.448063" stop-color="#706CFF"/>
<stop offset="1" stop-color="#8766FF"/>
</linearGradient>
<linearGradient id="paint1_linear_1923_4129" x1="1334.54" y1="464.99" x2="1838.33" y2="854.75" gradientUnits="userSpaceOnUse">
<stop stop-color="white"/>
<stop offset="1" stop-color="white" stop-opacity="0.37"/>
</linearGradient>
<linearGradient id="paint2_linear_1923_4129" x1="1466.87" y1="502.61" x2="1798.44" y2="790.207" gradientUnits="userSpaceOnUse">
<stop stop-color="white"/>
<stop offset="1" stop-color="white" stop-opacity="0.55"/>
</linearGradient>
<linearGradient id="paint3_linear_1923_4129" x1="209.051" y1="463.983" x2="233.357" y2="803.312" gradientUnits="userSpaceOnUse">
<stop stop-color="white"/>
<stop offset="1" stop-color="white" stop-opacity="0.37"/>
</linearGradient>
<linearGradient id="paint4_linear_1923_4129" x1="241.211" y1="530.052" x2="244.837" y2="764.447" gradientUnits="userSpaceOnUse">
<stop stop-color="white"/>
<stop offset="1" stop-color="white" stop-opacity="0.55"/>
</linearGradient>
<linearGradient id="paint5_linear_1923_4129" x1="1116.9" y1="-54.622" x2="1128.63" y2="109.139" gradientUnits="userSpaceOnUse">
<stop stop-color="white"/>
<stop offset="1" stop-color="white" stop-opacity="0.37"/>
</linearGradient>
<linearGradient id="paint6_linear_1923_4129" x1="1132.42" y1="-22.7368" x2="1134.17" y2="90.3833" gradientUnits="userSpaceOnUse">
<stop stop-color="white"/>
<stop offset="1" stop-color="white" stop-opacity="0.55"/>
</linearGradient>
<linearGradient id="paint7_linear_1923_4129" x1="-85.4778" y1="936.732" x2="146.81" y2="1116.44" gradientUnits="userSpaceOnUse">
<stop stop-color="white"/>
<stop offset="1" stop-color="white" stop-opacity="0.37"/>
</linearGradient>
<linearGradient id="paint8_linear_1923_4129" x1="-24.4609" y1="954.078" x2="128.417" y2="1086.68" gradientUnits="userSpaceOnUse">
<stop stop-color="white"/>
<stop offset="1" stop-color="white" stop-opacity="0.55"/>
</linearGradient>
<linearGradient id="paint9_linear_1923_4129" x1="492.966" y1="973.084" x2="662.138" y2="1195.37" gradientUnits="userSpaceOnUse">
<stop stop-color="white"/>
<stop offset="1" stop-color="white" stop-opacity="0.37"/>
</linearGradient>
<linearGradient id="paint10_linear_1923_4129" x1="544.754" y1="1004.04" x2="652.565" y2="1163.5" gradientUnits="userSpaceOnUse">
<stop stop-color="white"/>
<stop offset="1" stop-color="white" stop-opacity="0.55"/>
</linearGradient>
<linearGradient id="paint11_linear_1923_4129" x1="91.767" y1="59.4884" x2="62.5356" y2="309.24" gradientUnits="userSpaceOnUse">
<stop stop-color="white"/>
<stop offset="1" stop-color="white" stop-opacity="0.55"/>
</linearGradient>
<linearGradient id="paint12_linear_1923_4129" x1="1068.09" y1="364.775" x2="1027.5" y2="711.616" gradientUnits="userSpaceOnUse">
<stop stop-color="white"/>
<stop offset="1" stop-color="white" stop-opacity="0.55"/>
</linearGradient>
<linearGradient id="paint13_linear_1923_4129" x1="401.906" y1="-69.3891" x2="653.942" y2="172.322" gradientUnits="userSpaceOnUse">
<stop stop-color="white"/>
<stop offset="1" stop-color="white" stop-opacity="0.55"/>
</linearGradient>
<linearGradient id="paint14_linear_1923_4129" x1="1270.92" y1="876.488" x2="1564.8" y2="1262.64" gradientUnits="userSpaceOnUse">
<stop stop-color="white"/>
<stop offset="1" stop-color="white" stop-opacity="0.37"/>
</linearGradient>
<linearGradient id="paint15_linear_1923_4129" x1="1360.88" y1="930.264" x2="1548.17" y2="1207.28" gradientUnits="userSpaceOnUse">
<stop stop-color="white"/>
<stop offset="1" stop-color="white" stop-opacity="0.55"/>
</linearGradient>
<clipPath id="clip0_1923_4129">
<rect width="1728" height="1117" fill="white"/>
</clipPath>
</defs>
</svg>
