<svg width="497" height="120" viewBox="0 0 497 120" fill="none" xmlns="http://www.w3.org/2000/svg">
<rect width="497" height="120" rx="32" fill="#F9F9F9"/>
<mask id="mask0_1922_8133" style="mask-type:alpha" maskUnits="userSpaceOnUse" x="230" y="24" width="37" height="36">
<rect x="230.5" y="24" width="36" height="36" fill="#D9D9D9"/>
</mask>
<g mask="url(#mask0_1922_8133)">
<path d="M236.51 53.4734C235.403 53.4734 234.463 53.0878 233.692 52.3166C232.921 51.5453 232.535 50.6059 232.535 49.4984V34.4984C232.535 33.3909 232.921 32.4516 233.692 31.6803C234.463 30.9091 235.403 30.5234 236.51 30.5234H260.51C261.618 30.5234 262.557 30.9091 263.328 31.6803C264.1 32.4516 264.485 33.3909 264.485 34.4984V49.4984C264.485 50.6059 264.1 51.5453 263.328 52.3166C262.557 53.0878 261.618 53.4734 260.51 53.4734H236.51ZM236.51 49.4984H260.51V34.4984H236.51V49.4984ZM244.01 47.9984H253.01C253.435 47.9984 253.791 47.8547 254.079 47.5672C254.366 47.2797 254.51 46.9234 254.51 46.4984C254.51 46.0734 254.366 45.7172 254.079 45.4297C253.791 45.1422 253.435 44.9984 253.01 44.9984H244.01C243.585 44.9984 243.229 45.1422 242.941 45.4297C242.654 45.7172 242.51 46.0734 242.51 46.4984C242.51 46.9234 242.654 47.2797 242.941 47.5672C243.229 47.8547 243.585 47.9984 244.01 47.9984ZM239.51 38.9984C239.935 38.9984 240.291 38.8547 240.579 38.5672C240.866 38.2797 241.01 37.9234 241.01 37.4984C241.01 37.0734 240.866 36.7172 240.579 36.4297C240.291 36.1422 239.935 35.9984 239.51 35.9984C239.085 35.9984 238.729 36.1422 238.441 36.4297C238.154 36.7172 238.01 37.0734 238.01 37.4984C238.01 37.9234 238.154 38.2797 238.441 38.5672C238.729 38.8547 239.085 38.9984 239.51 38.9984ZM244.01 38.9984C244.435 38.9984 244.791 38.8547 245.079 38.5672C245.366 38.2797 245.51 37.9234 245.51 37.4984C245.51 37.0734 245.366 36.7172 245.079 36.4297C244.791 36.1422 244.435 35.9984 244.01 35.9984C243.585 35.9984 243.229 36.1422 242.941 36.4297C242.654 36.7172 242.51 37.0734 242.51 37.4984C242.51 37.9234 242.654 38.2797 242.941 38.5672C243.229 38.8547 243.585 38.9984 244.01 38.9984ZM248.51 38.9984C248.935 38.9984 249.291 38.8547 249.579 38.5672C249.866 38.2797 250.01 37.9234 250.01 37.4984C250.01 37.0734 249.866 36.7172 249.579 36.4297C249.291 36.1422 248.935 35.9984 248.51 35.9984C248.085 35.9984 247.729 36.1422 247.441 36.4297C247.154 36.7172 247.01 37.0734 247.01 37.4984C247.01 37.9234 247.154 38.2797 247.441 38.5672C247.729 38.8547 248.085 38.9984 248.51 38.9984ZM253.01 38.9984C253.435 38.9984 253.791 38.8547 254.079 38.5672C254.366 38.2797 254.51 37.9234 254.51 37.4984C254.51 37.0734 254.366 36.7172 254.079 36.4297C253.791 36.1422 253.435 35.9984 253.01 35.9984C252.585 35.9984 252.229 36.1422 251.941 36.4297C251.654 36.7172 251.51 37.0734 251.51 37.4984C251.51 37.9234 251.654 38.2797 251.941 38.5672C252.229 38.8547 252.585 38.9984 253.01 38.9984ZM257.51 38.9984C257.935 38.9984 258.291 38.8547 258.579 38.5672C258.866 38.2797 259.01 37.9234 259.01 37.4984C259.01 37.0734 258.866 36.7172 258.579 36.4297C258.291 36.1422 257.935 35.9984 257.51 35.9984C257.085 35.9984 256.729 36.1422 256.441 36.4297C256.154 36.7172 256.01 37.0734 256.01 37.4984C256.01 37.9234 256.154 38.2797 256.441 38.5672C256.729 38.8547 257.085 38.9984 257.51 38.9984ZM239.51 43.4984C239.935 43.4984 240.291 43.3547 240.579 43.0672C240.866 42.7797 241.01 42.4234 241.01 41.9984C241.01 41.5734 240.866 41.2172 240.579 40.9297C240.291 40.6422 239.935 40.4984 239.51 40.4984C239.085 40.4984 238.729 40.6422 238.441 40.9297C238.154 41.2172 238.01 41.5734 238.01 41.9984C238.01 42.4234 238.154 42.7797 238.441 43.0672C238.729 43.3547 239.085 43.4984 239.51 43.4984ZM244.01 43.4984C244.435 43.4984 244.791 43.3547 245.079 43.0672C245.366 42.7797 245.51 42.4234 245.51 41.9984C245.51 41.5734 245.366 41.2172 245.079 40.9297C244.791 40.6422 244.435 40.4984 244.01 40.4984C243.585 40.4984 243.229 40.6422 242.941 40.9297C242.654 41.2172 242.51 41.5734 242.51 41.9984C242.51 42.4234 242.654 42.7797 242.941 43.0672C243.229 43.3547 243.585 43.4984 244.01 43.4984ZM248.51 43.4984C248.935 43.4984 249.291 43.3547 249.579 43.0672C249.866 42.7797 250.01 42.4234 250.01 41.9984C250.01 41.5734 249.866 41.2172 249.579 40.9297C249.291 40.6422 248.935 40.4984 248.51 40.4984C248.085 40.4984 247.729 40.6422 247.441 40.9297C247.154 41.2172 247.01 41.5734 247.01 41.9984C247.01 42.4234 247.154 42.7797 247.441 43.0672C247.729 43.3547 248.085 43.4984 248.51 43.4984ZM253.01 43.4984C253.435 43.4984 253.791 43.3547 254.079 43.0672C254.366 42.7797 254.51 42.4234 254.51 41.9984C254.51 41.5734 254.366 41.2172 254.079 40.9297C253.791 40.6422 253.435 40.4984 253.01 40.4984C252.585 40.4984 252.229 40.6422 251.941 40.9297C251.654 41.2172 251.51 41.5734 251.51 41.9984C251.51 42.4234 251.654 42.7797 251.941 43.0672C252.229 43.3547 252.585 43.4984 253.01 43.4984ZM257.51 43.4984C257.935 43.4984 258.291 43.3547 258.579 43.0672C258.866 42.7797 259.01 42.4234 259.01 41.9984C259.01 41.5734 258.866 41.2172 258.579 40.9297C258.291 40.6422 257.935 40.4984 257.51 40.4984C257.085 40.4984 256.729 40.6422 256.441 40.9297C256.154 41.2172 256.01 41.5734 256.01 41.9984C256.01 42.4234 256.154 42.7797 256.441 43.0672C256.729 43.3547 257.085 43.4984 257.51 43.4984Z" fill="#1C1B1F"/>
</g>
<path d="M133.832 76.3711C136.488 76.3711 138.402 78.793 138.422 82.6016C138.402 86.4492 136.488 88.8516 133.832 88.8516C131.156 88.8516 129.223 86.4492 129.242 82.6016C129.223 78.793 131.156 76.3711 133.832 76.3711ZM133.832 78.3242C132.348 78.3242 131.332 79.9062 131.332 82.6016C131.332 85.3164 132.348 86.8984 133.832 86.8984C135.336 86.8984 136.332 85.3164 136.332 82.6016C136.332 79.9062 135.336 78.3242 133.832 78.3242ZM142.914 75.082V81.8594H145.629V83.6953H142.914V92.7383H140.746V75.082H142.914ZM153.559 76.8789V83.4609H148.988V86.8984C150.785 86.8789 152.494 86.8105 154.457 86.4883L154.613 88.2461C152.23 88.6367 150.297 88.7148 148.109 88.7148H146.898V81.7031H151.469V78.6367H146.879V76.8789H153.559ZM161.566 75.082V92.7383H159.496V83.6172H157.504V91.8398H155.512V75.4141H157.504V81.8594H159.496V75.082H161.566ZM169.379 76.3125C172.172 76.293 174.223 78.0703 174.242 80.5703C174.223 83.0898 172.172 84.8477 169.379 84.8477C166.605 84.8477 164.535 83.0898 164.535 80.5703C164.535 78.0703 166.605 76.293 169.379 76.3125ZM169.379 78.1875C167.836 78.1875 166.684 79.1055 166.684 80.5703C166.684 82.0547 167.836 82.9531 169.379 82.9531C170.941 82.9531 172.113 82.0547 172.113 80.5703C172.113 79.1055 170.941 78.1875 169.379 78.1875ZM178.363 75.082V92.7578H176.195V75.082H178.363ZM163.734 87.2891C166.918 87.2891 171.332 87.25 175.141 86.7031L175.316 88.2852C171.352 89.0469 167.113 89.0664 164.008 89.0664L163.734 87.2891ZM195.258 76.8203C195.238 82.1523 193.637 86.8008 187.074 90.0039L185.922 88.3242C188.959 86.8398 190.854 85.0723 191.938 82.9531L186.312 83.4609L186.039 81.6055L192.621 81.1953C192.865 80.375 193.012 79.4961 193.09 78.5781H186.938V76.8203H195.258ZM200.434 75.082V92.7383H198.246V75.082H200.434ZM219.105 88.832V90.6094H202.973V88.832H209.926V85.3945H204.75V76.2539H206.918V79.1445H215.102V76.2539H217.27V85.3945H212.074V88.832H219.105ZM206.918 83.6367H215.102V80.8828H206.918V83.6367ZM234.594 83.3633V85.1016H222.211V76.625H234.457V78.3828H224.359V83.3633H234.594ZM236.391 88.6953V90.4922H220.258V88.6953H236.391ZM253.676 88.8906V90.6875H237.543V88.8906H244.496V86.0195H239.457V80.2383H249.613V78.0508H239.418V76.293H251.762V81.957H241.625V84.2422H252.172V86.0195H246.645V88.8906H253.676ZM274.281 75.082V84.5547H272.094V75.082H274.281ZM264.75 85.375V87.1914H272.113V85.375H274.281V92.5234H262.602V85.375H264.75ZM264.75 90.7656H272.113V88.8906H264.75V90.7656ZM264.652 75.8633C267.367 75.8438 269.398 77.543 269.398 80.0039C269.398 82.4062 267.367 84.1055 264.652 84.1055C261.918 84.1055 259.887 82.4062 259.887 80.0039C259.887 77.543 261.918 75.8438 264.652 75.8633ZM264.652 77.6797C263.109 77.6797 261.996 78.5781 262.016 80.0039C261.996 81.4102 263.109 82.3086 264.652 82.3281C266.176 82.3086 267.27 81.4102 267.27 80.0039C267.27 78.5781 266.176 77.6797 264.652 77.6797ZM285.297 76.1367V81.4492H279.73V83.6172C282.562 83.627 284.193 83.5391 286.059 83.1875L286.273 84.9453C284.164 85.2969 282.328 85.3555 278.871 85.3555H277.582V79.8281H283.129V77.8555H277.543V76.1367H285.297ZM291.645 75.1016V85.9609H289.477V83.0508H286.352V81.3125H289.477V79.3398H286.352V77.6016H289.477V75.1016H291.645ZM291.645 86.8008V92.7383H289.477V88.5391H279.574V86.8008H291.645ZM302.758 77.8945V79.6328H294.105V77.8945H297.387V75.5898H299.535V77.8945H302.758ZM298.461 80.5703C300.707 80.5703 302.309 82.2695 302.309 84.6719C302.309 87.1133 300.707 88.832 298.461 88.832C296.234 88.832 294.594 87.1133 294.613 84.6719C294.594 82.2695 296.234 80.5703 298.461 80.5703ZM298.461 82.3672C297.309 82.3672 296.508 83.2852 296.527 84.6719C296.508 86.0977 297.309 86.9961 298.461 86.9766C299.594 86.9961 300.395 86.0977 300.395 84.6719C300.395 83.2852 299.594 82.3672 298.461 82.3672ZM309.32 75.082V92.7383H307.25V84.1055H305.531V91.9375H303.5V75.4531H305.531V82.3477H307.25V75.082H309.32ZM327.523 84.9258V86.6836H320.512V92.7188H318.363V86.6836H311.43V84.9258H327.523ZM326.039 76.0781V77.7969H320.746C320.873 79.7305 323.197 81.5859 326.684 82.0352L325.902 83.7344C322.895 83.3145 320.551 81.9375 319.477 80.0234C318.402 81.9375 316.059 83.3145 313.09 83.7344L312.27 82.0352C315.736 81.5859 318.061 79.7305 318.227 77.7969H312.914V76.0781H326.039ZM334.223 79.7109C334.223 82.5625 335.219 85.5312 337.602 87.0352L336.41 88.6953C334.818 87.7383 333.783 86.0879 333.207 84.1445C332.562 86.2832 331.43 88.0898 329.77 89.1055L328.422 87.4844C330.98 85.9219 332.133 82.8164 332.133 79.8086V76.6445H334.223V79.7109ZM343.949 75.082V92.7383H341.859V75.082H343.949ZM340.277 75.3945V91.8789H338.227V82.9531H335.707V81.1562H338.227V75.3945H340.277ZM362.133 88.8125V90.5898H346V88.8125H349.73V84.3398C348.324 83.5391 347.475 82.2793 347.484 80.707C347.465 77.8945 350.238 76.0391 354.027 76.0391C357.836 76.0391 360.609 77.8945 360.609 80.707C360.609 82.25 359.789 83.4902 358.422 84.3008V88.8125H362.133ZM354.027 77.7578C351.391 77.7578 349.594 78.8711 349.613 80.707C349.594 82.5234 351.391 83.6562 354.027 83.6562C356.664 83.6562 358.48 82.5234 358.48 80.707C358.48 78.8711 356.664 77.7578 354.027 77.7578ZM351.879 88.8125H356.215V85.1211C355.541 85.2773 354.809 85.3555 354.027 85.3555C353.266 85.3555 352.543 85.2773 351.879 85.1406V88.8125ZM366.918 76.8594L366.703 86.8398H364.496L364.262 76.8594H366.918ZM365.609 91.1562C364.77 91.1562 364.086 90.4727 364.086 89.6328C364.086 88.8125 364.77 88.1289 365.609 88.1289C366.41 88.1289 367.113 88.8125 367.113 89.6328C367.113 90.4727 366.41 91.1562 365.609 91.1562Z" fill="#262422"/>
</svg>
