<svg width="236" height="47" viewBox="0 0 236 47" fill="none" xmlns="http://www.w3.org/2000/svg">
<mask id="path-1-inside-1_1893_4552" fill="white">
<path d="M34.8945 13.7095C34.8945 13.0786 35.2099 12.7631 35.8409 12.7631H44.4739C45.1048 12.7631 45.4202 13.0786 45.4202 13.7095C45.4202 15.9409 45.3972 18.1799 45.351 20.4267C45.3048 22.658 45.2817 24.897 45.2817 27.1438C45.2817 29.8829 45.3125 32.6144 45.3741 35.3382C45.4356 38.062 45.4664 40.7934 45.4664 43.5326C45.4664 44.1635 45.1509 44.479 44.52 44.479H35.7947C35.1791 44.479 34.8714 44.1635 34.8714 43.5326C34.8714 40.7934 34.8945 38.062 34.9406 35.3382C35.0022 32.6144 35.033 29.8829 35.033 27.1438C35.033 24.897 35.0099 22.658 34.9637 20.4267C34.9175 18.1799 34.8945 15.9409 34.8945 13.7095Z"/>
<path d="M15.1824 12.7631C17.1676 12.7631 19.0373 12.9555 20.7916 13.3402C22.5612 13.7095 24.1232 14.3405 25.4774 15.233C26.847 16.1102 27.9165 17.3028 28.6859 18.8109C29.4707 20.3189 29.8631 22.204 29.8631 24.4662V24.6508C29.8477 26.4974 29.5169 28.2517 28.8706 29.9137C28.2242 31.5603 27.147 32.9683 25.639 34.1379C25.3466 34.3687 25.0465 34.5688 24.7387 34.738C24.431 34.9073 24.1232 35.092 23.8154 35.292C23.7846 35.3074 23.7385 35.3459 23.6769 35.4074L23.6538 35.4767C23.6538 35.5536 23.8539 35.8306 24.254 36.3077C24.6695 36.7847 25.185 37.3618 25.8005 38.0389C26.4315 38.7006 27.0701 39.3777 27.7164 40.0702C28.3627 40.7473 28.9321 41.3474 29.4246 41.8706C29.9324 42.3785 30.2632 42.717 30.4171 42.8863C30.5402 43.0248 30.6787 43.1787 30.8326 43.3479C30.9865 43.5172 31.0634 43.7096 31.0634 43.925C31.0634 44.202 30.8942 44.3636 30.5556 44.4097C30.2171 44.4559 29.9555 44.479 29.7708 44.479H20.0529C19.7759 44.479 19.522 44.3482 19.2912 44.0866C19.1373 43.9173 18.868 43.5557 18.4833 43.0017C18.1139 42.4323 17.6831 41.786 17.1906 41.0627C16.7136 40.3395 16.2442 39.6316 15.7826 38.9391C15.3209 38.2466 14.9208 37.6772 14.5823 37.231C14.2437 36.7693 14.036 36.5385 13.959 36.5385C13.7282 36.5385 13.5974 36.6308 13.5666 36.8155C13.5358 37.0925 13.5205 37.3849 13.5205 37.6926C13.5205 37.985 13.5205 38.2697 13.5205 38.5467C13.5205 39.3777 13.5282 40.2164 13.5435 41.0627C13.5743 41.8937 13.5512 42.717 13.4743 43.5326C13.4435 43.8558 13.3666 44.0943 13.2435 44.2482C13.1204 44.402 12.8818 44.479 12.5279 44.479H3.82566C3.21012 44.479 2.90234 44.1558 2.90234 43.5095C2.90234 42.6785 2.93312 41.8399 2.99468 40.9935C3.05623 40.1471 3.1024 39.3084 3.13317 38.4774C3.21012 36.7385 3.26398 34.9996 3.29475 33.2607C3.34092 31.5064 3.364 29.7521 3.364 27.9978C3.364 26.3974 3.34861 24.7893 3.31784 23.1735C3.28706 21.5577 3.24089 19.9496 3.17934 18.3492C3.16395 17.5798 3.12548 16.8103 3.06392 16.0409C3.01776 15.2561 2.99468 14.4867 2.99468 13.7326C2.99468 13.0863 3.30245 12.7631 3.91799 12.7631H15.1824ZM16.2673 28.5518C17.1137 28.5518 17.7446 28.3595 18.1601 27.9747C18.5756 27.5746 18.8526 27.0591 18.9911 26.4282C19.1296 25.7973 19.1988 25.1356 19.1988 24.4431C19.1988 23.4582 18.9603 22.6965 18.4833 22.1579C18.0216 21.6193 17.283 21.35 16.2673 21.35H13.5666C13.5666 22.5503 13.5666 23.7506 13.5666 24.9509C13.582 26.1512 13.5897 27.3515 13.5897 28.5518H16.2673Z"/>
<path d="M74.4137 13.7326C74.4137 13.0863 74.7214 12.7631 75.337 12.7631H96.7117C97.3273 12.7631 97.635 13.0863 97.635 13.7326C97.635 14.4867 97.612 15.2484 97.5658 16.0178C97.535 16.7719 97.5042 17.5336 97.4735 18.303C97.4581 18.9186 97.4427 19.5341 97.4273 20.1497C97.4273 20.7498 97.4119 21.3577 97.3811 21.9732C97.3657 22.6041 97.0503 22.9196 96.4347 22.9196H91.1718C90.9718 22.9196 90.8718 23.0196 90.8718 23.2197V26.8206C90.8718 29.6059 90.9025 32.3913 90.9641 35.1766C91.0256 37.9619 91.0564 40.7473 91.0564 43.5326C91.0564 44.1635 90.741 44.479 90.11 44.479H81.3847C80.7845 44.479 80.4845 44.1635 80.4845 43.5326C80.4845 40.9935 80.5075 38.4544 80.5537 35.9153C80.5999 33.3761 80.623 30.837 80.623 28.2979V23.2197C80.623 23.0196 80.5306 22.9196 80.346 22.9196H75.614C74.9984 22.9196 74.683 22.6041 74.6676 21.9732C74.6368 21.3577 74.6214 20.7498 74.6214 20.1497C74.6214 19.5341 74.606 18.9186 74.5753 18.303C74.5599 17.5336 74.5291 16.7719 74.4829 16.0178C74.4368 15.2484 74.4137 14.4867 74.4137 13.7326Z"/>
<path d="M109.858 43.5095C109.858 42.5093 109.874 41.509 109.905 40.5087C109.935 39.5085 109.951 38.5159 109.951 37.5311C109.951 37.3926 109.951 37.1156 109.951 36.7001C109.951 36.2692 109.935 36.0076 109.905 35.9153C109.843 35.669 109.751 35.4228 109.628 35.1766C109.504 34.9304 109.389 34.6842 109.281 34.4379C108.989 33.7455 108.689 33.0607 108.381 32.3836C108.073 31.6911 107.766 31.0063 107.458 30.3292C106.242 27.6054 105.003 24.897 103.741 22.204C102.495 19.4956 101.21 16.8026 99.8866 14.125C99.825 14.0019 99.7711 13.8865 99.725 13.7788C99.6788 13.6557 99.6557 13.5326 99.6557 13.4095C99.6557 13.1171 99.7711 12.9401 100.002 12.8786C100.248 12.8016 100.479 12.7631 100.694 12.7631H111.52C111.782 12.7631 111.974 12.8247 112.097 12.9478C112.22 13.0555 112.328 13.2248 112.421 13.4556C112.605 13.9019 112.751 14.3789 112.859 14.8868C112.982 15.3792 113.105 15.8639 113.228 16.341C113.459 17.172 113.69 18.0106 113.921 18.857C114.152 19.688 114.383 20.519 114.613 21.35C114.706 21.6885 114.806 22.0348 114.913 22.3887C115.021 22.7426 115.114 23.0966 115.19 23.4505C115.221 23.5274 115.237 23.5967 115.237 23.6583C115.252 23.7198 115.291 23.7891 115.352 23.866L115.444 23.8891C115.537 23.9045 115.598 23.8506 115.629 23.7275C115.675 23.6044 115.706 23.5121 115.721 23.4505C116.045 22.2656 116.352 21.0807 116.645 19.8957C116.952 18.7108 117.26 17.5259 117.568 16.341C117.691 15.8639 117.799 15.3792 117.891 14.8868C117.999 14.3789 118.145 13.9019 118.33 13.4556C118.514 12.994 118.822 12.7631 119.253 12.7631H130.079C130.294 12.7631 130.518 12.8016 130.748 12.8786C130.995 12.9555 131.118 13.1325 131.118 13.4095C131.118 13.548 131.087 13.6788 131.025 13.8019C130.979 13.9096 130.925 14.025 130.864 14.1481C129.556 16.7026 128.263 19.2725 126.986 21.8578C125.709 24.4277 124.462 27.0207 123.246 29.6367C123.154 29.8368 122.946 30.2676 122.623 30.9294C122.315 31.5757 121.977 32.2835 121.608 33.053C121.254 33.8224 120.946 34.5072 120.684 35.1073C120.423 35.7075 120.292 36.0614 120.292 36.1692C120.292 37.3849 120.315 38.6082 120.361 39.8393C120.407 41.0704 120.43 42.3015 120.43 43.5326C120.43 44.1635 120.115 44.479 119.484 44.479H110.782C110.166 44.479 109.858 44.1558 109.858 43.5095Z"/>
<path d="M47.8813 13.7326C47.8813 13.0863 48.1891 12.7631 48.8046 12.7631H70.1793C70.7949 12.7631 71.1026 13.0863 71.1026 13.7326C71.1026 14.4867 71.0796 15.2484 71.0334 16.0178C71.0026 16.7719 70.9718 17.5336 70.9411 18.303C70.9257 18.9186 70.9103 19.5341 70.8949 20.1497C70.8949 20.7498 70.8795 21.3577 70.8487 21.9732C70.8334 22.6041 70.5179 22.9196 69.9023 22.9196H64.6394C64.4394 22.9196 64.3394 23.0196 64.3394 23.2197V26.8206C64.3394 29.6059 64.3701 32.3913 64.4317 35.1766C64.4933 37.9619 64.524 40.7473 64.524 43.5326C64.524 44.1635 64.2086 44.479 63.5776 44.479H54.8523C54.2522 44.479 53.9521 44.1635 53.9521 43.5326C53.9521 40.9935 53.9752 38.4544 54.0213 35.9153C54.0675 33.3761 54.0906 30.837 54.0906 28.2979V23.2197C54.0906 23.0196 53.9982 22.9196 53.8136 22.9196H49.0816C48.4661 22.9196 48.1506 22.6041 48.1352 21.9732C48.1044 21.3577 48.089 20.7498 48.089 20.1497C48.089 19.5341 48.0736 18.9186 48.0429 18.303C48.0275 17.5336 47.9967 16.7719 47.9505 16.0178C47.9044 15.2484 47.8813 14.4867 47.8813 13.7326Z"/>
<path d="M158.362 12.6016C158.655 12.6016 159.155 12.6246 159.863 12.6708C160.586 12.7016 161.348 12.7785 162.148 12.9016C162.963 13.0094 163.656 13.1863 164.225 13.4325C164.81 13.6634 165.102 13.9788 165.102 14.3789C165.102 14.579 165.041 15.0022 164.918 15.6485C164.795 16.2948 164.641 17.0181 164.456 17.8183C164.287 18.6185 164.125 19.3648 163.971 20.0573C163.817 20.7344 163.702 21.2115 163.625 21.4885C163.564 21.7347 163.487 21.9501 163.394 22.1348C163.302 22.3041 163.102 22.3887 162.794 22.3887C162.686 22.3887 162.586 22.3733 162.494 22.3425C162.402 22.3118 162.309 22.2887 162.217 22.2733C161.54 22.104 160.871 22.0194 160.209 22.0194C159.901 22.0194 159.555 22.0655 159.17 22.1579C158.801 22.2502 158.616 22.5118 158.616 22.9427C158.616 23.4043 158.77 23.8814 159.078 24.3738C159.401 24.8663 159.778 25.3279 160.209 25.7588C160.64 26.1897 161.024 26.5436 161.363 26.8206C162.456 27.667 163.34 28.4133 164.018 29.0596C164.71 29.706 165.218 30.46 165.541 31.3218C165.88 32.1681 166.049 33.33 166.049 34.8073V35.3382C166.049 37.2617 165.71 38.8468 165.033 40.0932C164.371 41.3243 163.456 42.2861 162.286 42.9786C161.117 43.6711 159.786 44.1558 158.293 44.4328C156.8 44.7098 155.231 44.8483 153.584 44.8483C152.645 44.8483 151.537 44.8022 150.26 44.7098C148.998 44.6329 147.936 44.4174 147.075 44.0635C146.875 43.9866 146.713 43.8942 146.59 43.7865C146.482 43.6788 146.428 43.5018 146.428 43.2556C146.428 43.1787 146.444 43.0786 146.475 42.9555C146.628 42.1399 146.782 41.332 146.936 40.5318C147.09 39.7316 147.236 38.9314 147.375 38.1312C147.436 37.7465 147.482 37.3618 147.513 36.9771C147.559 36.577 147.636 36.1922 147.744 35.8229C147.79 35.669 147.867 35.4844 147.975 35.2689C148.098 35.0535 148.26 34.9458 148.46 34.9458C148.583 34.9458 148.698 34.9612 148.806 34.9919C148.929 35.0073 149.044 35.0304 149.152 35.0612C149.829 35.2151 150.491 35.3305 151.137 35.4074C151.784 35.4844 152.453 35.5228 153.145 35.5228C153.499 35.5228 153.838 35.4767 154.161 35.3843C154.484 35.292 154.646 35.015 154.646 34.5534C154.646 34.0917 154.53 33.6608 154.3 33.2607C154.1 32.9068 153.861 32.5682 153.584 32.2451C153.322 31.9065 153.045 31.5911 152.753 31.2987C152.384 30.914 151.991 30.56 151.576 30.2369C151.16 29.9137 150.745 29.5829 150.329 29.2443C149.021 28.2287 148.19 27.2053 147.836 26.1743C147.482 25.1279 147.29 23.7891 147.259 22.1579V21.9501C147.259 19.6111 147.744 17.7644 148.714 16.4102C149.683 15.0407 151.006 14.0635 152.684 13.4787C154.361 12.8939 156.254 12.6016 158.362 12.6016Z"/>
<path d="M133.103 13.7095C133.103 13.0786 133.418 12.7631 134.049 12.7631H142.682C143.313 12.7631 143.629 13.0786 143.629 13.7095C143.629 15.9409 143.605 18.1799 143.559 20.4267C143.513 22.658 143.49 24.897 143.49 27.1438C143.49 29.8829 143.521 32.6144 143.582 35.3382C143.644 38.062 143.675 40.7934 143.675 43.5326C143.675 44.1635 143.359 44.479 142.728 44.479H134.003C133.387 44.479 133.08 44.1635 133.08 43.5326C133.08 40.7934 133.103 38.062 133.149 35.3382C133.21 32.6144 133.241 29.8829 133.241 27.1438C133.241 24.897 133.218 22.658 133.172 20.4267C133.126 18.1799 133.103 15.9409 133.103 13.7095Z"/>
<path d="M168.75 44.479C168.134 44.479 167.827 44.1481 167.827 43.4864C167.827 42.6708 167.865 41.8552 167.942 41.0396C168.034 40.2087 168.096 39.3931 168.127 38.5929C168.204 36.8078 168.265 35.015 168.311 33.2146C168.357 31.4141 168.381 29.6213 168.381 27.8363C168.381 25.5587 168.319 23.2889 168.196 21.0268C168.073 18.7647 167.988 16.5026 167.942 14.2404V13.7557C167.942 13.6018 167.965 13.4018 168.011 13.1556C168.057 12.9093 168.188 12.7862 168.404 12.7862C168.604 12.7862 168.811 12.8863 169.027 13.0863C169.258 13.2864 169.435 13.4479 169.558 13.571C171.358 15.3561 173.105 17.2027 174.798 19.1109C176.49 21.0037 178.175 22.9042 179.853 24.8124C180.653 25.7049 181.445 26.6206 182.23 27.5593C183.03 28.498 183.854 29.3905 184.7 30.2369C184.731 30.2676 184.777 30.2984 184.839 30.3292H185.093C185.093 30.3292 185.431 29.9753 186.108 29.2674C186.801 28.5441 187.693 27.6054 188.786 26.4513C189.878 25.2971 191.063 24.0507 192.341 22.7119C193.618 21.373 194.864 20.065 196.08 18.7878C197.311 17.5105 198.388 16.3948 199.312 15.4408C200.25 14.4867 200.912 13.825 201.297 13.4556C201.451 13.3017 201.604 13.1632 201.758 13.0401C201.912 12.917 202.089 12.8247 202.289 12.7631C202.32 12.7631 202.343 12.7631 202.358 12.7631C202.389 12.7478 202.412 12.7401 202.428 12.7401C202.689 12.7401 202.828 12.8863 202.843 13.1786C202.874 13.471 202.889 13.7095 202.889 13.8942V14.1712C202.843 16.264 202.759 18.3569 202.635 20.4497C202.528 22.5426 202.474 24.6431 202.474 26.7514C202.474 28.6288 202.489 30.5139 202.52 32.4067C202.566 34.2994 202.635 36.1846 202.728 38.062C202.774 38.9853 202.836 39.9163 202.912 40.855C203.005 41.7783 203.051 42.7016 203.051 43.6249C203.051 44.1943 202.751 44.479 202.151 44.479H193.402C192.771 44.479 192.448 44.1712 192.433 43.5557C192.433 43.4172 192.425 43.1325 192.41 42.7016C192.41 42.2707 192.402 41.8014 192.387 41.2936C192.387 40.7703 192.379 40.3087 192.364 39.9086C192.348 39.5085 192.325 39.2777 192.294 39.2161L192.202 39.1699C192.14 39.1699 191.917 39.37 191.533 39.7701C191.148 40.1548 190.671 40.6472 190.101 41.2474C189.548 41.8475 188.978 42.4631 188.393 43.094C187.824 43.725 187.316 44.2789 186.87 44.756C186.424 45.233 186.131 45.5408 185.993 45.6793C185.9 45.7716 185.8 45.8563 185.693 45.9332C185.585 46.0102 185.462 46.0486 185.323 46.0486C185.185 46.0486 185.062 46.0102 184.954 45.9332C184.862 45.8717 184.762 45.7947 184.654 45.7024C184.5 45.5639 184.192 45.2715 183.731 44.8252C183.284 44.379 182.761 43.8634 182.161 43.2787C181.576 42.6785 180.999 42.1015 180.43 41.5475C179.86 40.9781 179.368 40.5087 178.952 40.1394C178.552 39.7701 178.322 39.5854 178.26 39.5854C178.214 39.5854 178.183 39.6393 178.168 39.747C178.152 39.8393 178.145 39.9009 178.145 39.9317L178.052 43.5557C178.037 44.1712 177.714 44.479 177.083 44.479H168.75Z"/>
</mask>
<path d="M34.8945 13.7095C34.8945 13.0786 35.2099 12.7631 35.8409 12.7631H44.4739C45.1048 12.7631 45.4202 13.0786 45.4202 13.7095C45.4202 15.9409 45.3972 18.1799 45.351 20.4267C45.3048 22.658 45.2817 24.897 45.2817 27.1438C45.2817 29.8829 45.3125 32.6144 45.3741 35.3382C45.4356 38.062 45.4664 40.7934 45.4664 43.5326C45.4664 44.1635 45.1509 44.479 44.52 44.479H35.7947C35.1791 44.479 34.8714 44.1635 34.8714 43.5326C34.8714 40.7934 34.8945 38.062 34.9406 35.3382C35.0022 32.6144 35.033 29.8829 35.033 27.1438C35.033 24.897 35.0099 22.658 34.9637 20.4267C34.9175 18.1799 34.8945 15.9409 34.8945 13.7095Z" fill="white"/>
<path d="M15.1824 12.7631C17.1676 12.7631 19.0373 12.9555 20.7916 13.3402C22.5612 13.7095 24.1232 14.3405 25.4774 15.233C26.847 16.1102 27.9165 17.3028 28.6859 18.8109C29.4707 20.3189 29.8631 22.204 29.8631 24.4662V24.6508C29.8477 26.4974 29.5169 28.2517 28.8706 29.9137C28.2242 31.5603 27.147 32.9683 25.639 34.1379C25.3466 34.3687 25.0465 34.5688 24.7387 34.738C24.431 34.9073 24.1232 35.092 23.8154 35.292C23.7846 35.3074 23.7385 35.3459 23.6769 35.4074L23.6538 35.4767C23.6538 35.5536 23.8539 35.8306 24.254 36.3077C24.6695 36.7847 25.185 37.3618 25.8005 38.0389C26.4315 38.7006 27.0701 39.3777 27.7164 40.0702C28.3627 40.7473 28.9321 41.3474 29.4246 41.8706C29.9324 42.3785 30.2632 42.717 30.4171 42.8863C30.5402 43.0248 30.6787 43.1787 30.8326 43.3479C30.9865 43.5172 31.0634 43.7096 31.0634 43.925C31.0634 44.202 30.8942 44.3636 30.5556 44.4097C30.2171 44.4559 29.9555 44.479 29.7708 44.479H20.0529C19.7759 44.479 19.522 44.3482 19.2912 44.0866C19.1373 43.9173 18.868 43.5557 18.4833 43.0017C18.1139 42.4323 17.6831 41.786 17.1906 41.0627C16.7136 40.3395 16.2442 39.6316 15.7826 38.9391C15.3209 38.2466 14.9208 37.6772 14.5823 37.231C14.2437 36.7693 14.036 36.5385 13.959 36.5385C13.7282 36.5385 13.5974 36.6308 13.5666 36.8155C13.5358 37.0925 13.5205 37.3849 13.5205 37.6926C13.5205 37.985 13.5205 38.2697 13.5205 38.5467C13.5205 39.3777 13.5282 40.2164 13.5435 41.0627C13.5743 41.8937 13.5512 42.717 13.4743 43.5326C13.4435 43.8558 13.3666 44.0943 13.2435 44.2482C13.1204 44.402 12.8818 44.479 12.5279 44.479H3.82566C3.21012 44.479 2.90234 44.1558 2.90234 43.5095C2.90234 42.6785 2.93312 41.8399 2.99468 40.9935C3.05623 40.1471 3.1024 39.3084 3.13317 38.4774C3.21012 36.7385 3.26398 34.9996 3.29475 33.2607C3.34092 31.5064 3.364 29.7521 3.364 27.9978C3.364 26.3974 3.34861 24.7893 3.31784 23.1735C3.28706 21.5577 3.24089 19.9496 3.17934 18.3492C3.16395 17.5798 3.12548 16.8103 3.06392 16.0409C3.01776 15.2561 2.99468 14.4867 2.99468 13.7326C2.99468 13.0863 3.30245 12.7631 3.91799 12.7631H15.1824ZM16.2673 28.5518C17.1137 28.5518 17.7446 28.3595 18.1601 27.9747C18.5756 27.5746 18.8526 27.0591 18.9911 26.4282C19.1296 25.7973 19.1988 25.1356 19.1988 24.4431C19.1988 23.4582 18.9603 22.6965 18.4833 22.1579C18.0216 21.6193 17.283 21.35 16.2673 21.35H13.5666C13.5666 22.5503 13.5666 23.7506 13.5666 24.9509C13.582 26.1512 13.5897 27.3515 13.5897 28.5518H16.2673Z" fill="white"/>
<path d="M74.4137 13.7326C74.4137 13.0863 74.7214 12.7631 75.337 12.7631H96.7117C97.3273 12.7631 97.635 13.0863 97.635 13.7326C97.635 14.4867 97.612 15.2484 97.5658 16.0178C97.535 16.7719 97.5042 17.5336 97.4735 18.303C97.4581 18.9186 97.4427 19.5341 97.4273 20.1497C97.4273 20.7498 97.4119 21.3577 97.3811 21.9732C97.3657 22.6041 97.0503 22.9196 96.4347 22.9196H91.1718C90.9718 22.9196 90.8718 23.0196 90.8718 23.2197V26.8206C90.8718 29.6059 90.9025 32.3913 90.9641 35.1766C91.0256 37.9619 91.0564 40.7473 91.0564 43.5326C91.0564 44.1635 90.741 44.479 90.11 44.479H81.3847C80.7845 44.479 80.4845 44.1635 80.4845 43.5326C80.4845 40.9935 80.5075 38.4544 80.5537 35.9153C80.5999 33.3761 80.623 30.837 80.623 28.2979V23.2197C80.623 23.0196 80.5306 22.9196 80.346 22.9196H75.614C74.9984 22.9196 74.683 22.6041 74.6676 21.9732C74.6368 21.3577 74.6214 20.7498 74.6214 20.1497C74.6214 19.5341 74.606 18.9186 74.5753 18.303C74.5599 17.5336 74.5291 16.7719 74.4829 16.0178C74.4368 15.2484 74.4137 14.4867 74.4137 13.7326Z" fill="white"/>
<path d="M109.858 43.5095C109.858 42.5093 109.874 41.509 109.905 40.5087C109.935 39.5085 109.951 38.5159 109.951 37.5311C109.951 37.3926 109.951 37.1156 109.951 36.7001C109.951 36.2692 109.935 36.0076 109.905 35.9153C109.843 35.669 109.751 35.4228 109.628 35.1766C109.504 34.9304 109.389 34.6842 109.281 34.4379C108.989 33.7455 108.689 33.0607 108.381 32.3836C108.073 31.6911 107.766 31.0063 107.458 30.3292C106.242 27.6054 105.003 24.897 103.741 22.204C102.495 19.4956 101.21 16.8026 99.8866 14.125C99.825 14.0019 99.7711 13.8865 99.725 13.7788C99.6788 13.6557 99.6557 13.5326 99.6557 13.4095C99.6557 13.1171 99.7711 12.9401 100.002 12.8786C100.248 12.8016 100.479 12.7631 100.694 12.7631H111.52C111.782 12.7631 111.974 12.8247 112.097 12.9478C112.22 13.0555 112.328 13.2248 112.421 13.4556C112.605 13.9019 112.751 14.3789 112.859 14.8868C112.982 15.3792 113.105 15.8639 113.228 16.341C113.459 17.172 113.69 18.0106 113.921 18.857C114.152 19.688 114.383 20.519 114.613 21.35C114.706 21.6885 114.806 22.0348 114.913 22.3887C115.021 22.7426 115.114 23.0966 115.19 23.4505C115.221 23.5274 115.237 23.5967 115.237 23.6583C115.252 23.7198 115.291 23.7891 115.352 23.866L115.444 23.8891C115.537 23.9045 115.598 23.8506 115.629 23.7275C115.675 23.6044 115.706 23.5121 115.721 23.4505C116.045 22.2656 116.352 21.0807 116.645 19.8957C116.952 18.7108 117.26 17.5259 117.568 16.341C117.691 15.8639 117.799 15.3792 117.891 14.8868C117.999 14.3789 118.145 13.9019 118.33 13.4556C118.514 12.994 118.822 12.7631 119.253 12.7631H130.079C130.294 12.7631 130.518 12.8016 130.748 12.8786C130.995 12.9555 131.118 13.1325 131.118 13.4095C131.118 13.548 131.087 13.6788 131.025 13.8019C130.979 13.9096 130.925 14.025 130.864 14.1481C129.556 16.7026 128.263 19.2725 126.986 21.8578C125.709 24.4277 124.462 27.0207 123.246 29.6367C123.154 29.8368 122.946 30.2676 122.623 30.9294C122.315 31.5757 121.977 32.2835 121.608 33.053C121.254 33.8224 120.946 34.5072 120.684 35.1073C120.423 35.7075 120.292 36.0614 120.292 36.1692C120.292 37.3849 120.315 38.6082 120.361 39.8393C120.407 41.0704 120.43 42.3015 120.43 43.5326C120.43 44.1635 120.115 44.479 119.484 44.479H110.782C110.166 44.479 109.858 44.1558 109.858 43.5095Z" fill="white"/>
<path d="M47.8813 13.7326C47.8813 13.0863 48.1891 12.7631 48.8046 12.7631H70.1793C70.7949 12.7631 71.1026 13.0863 71.1026 13.7326C71.1026 14.4867 71.0796 15.2484 71.0334 16.0178C71.0026 16.7719 70.9718 17.5336 70.9411 18.303C70.9257 18.9186 70.9103 19.5341 70.8949 20.1497C70.8949 20.7498 70.8795 21.3577 70.8487 21.9732C70.8334 22.6041 70.5179 22.9196 69.9023 22.9196H64.6394C64.4394 22.9196 64.3394 23.0196 64.3394 23.2197V26.8206C64.3394 29.6059 64.3701 32.3913 64.4317 35.1766C64.4933 37.9619 64.524 40.7473 64.524 43.5326C64.524 44.1635 64.2086 44.479 63.5776 44.479H54.8523C54.2522 44.479 53.9521 44.1635 53.9521 43.5326C53.9521 40.9935 53.9752 38.4544 54.0213 35.9153C54.0675 33.3761 54.0906 30.837 54.0906 28.2979V23.2197C54.0906 23.0196 53.9982 22.9196 53.8136 22.9196H49.0816C48.4661 22.9196 48.1506 22.6041 48.1352 21.9732C48.1044 21.3577 48.089 20.7498 48.089 20.1497C48.089 19.5341 48.0736 18.9186 48.0429 18.303C48.0275 17.5336 47.9967 16.7719 47.9505 16.0178C47.9044 15.2484 47.8813 14.4867 47.8813 13.7326Z" fill="white"/>
<path d="M158.362 12.6016C158.655 12.6016 159.155 12.6246 159.863 12.6708C160.586 12.7016 161.348 12.7785 162.148 12.9016C162.963 13.0094 163.656 13.1863 164.225 13.4325C164.81 13.6634 165.102 13.9788 165.102 14.3789C165.102 14.579 165.041 15.0022 164.918 15.6485C164.795 16.2948 164.641 17.0181 164.456 17.8183C164.287 18.6185 164.125 19.3648 163.971 20.0573C163.817 20.7344 163.702 21.2115 163.625 21.4885C163.564 21.7347 163.487 21.9501 163.394 22.1348C163.302 22.3041 163.102 22.3887 162.794 22.3887C162.686 22.3887 162.586 22.3733 162.494 22.3425C162.402 22.3118 162.309 22.2887 162.217 22.2733C161.54 22.104 160.871 22.0194 160.209 22.0194C159.901 22.0194 159.555 22.0655 159.17 22.1579C158.801 22.2502 158.616 22.5118 158.616 22.9427C158.616 23.4043 158.77 23.8814 159.078 24.3738C159.401 24.8663 159.778 25.3279 160.209 25.7588C160.64 26.1897 161.024 26.5436 161.363 26.8206C162.456 27.667 163.34 28.4133 164.018 29.0596C164.71 29.706 165.218 30.46 165.541 31.3218C165.88 32.1681 166.049 33.33 166.049 34.8073V35.3382C166.049 37.2617 165.71 38.8468 165.033 40.0932C164.371 41.3243 163.456 42.2861 162.286 42.9786C161.117 43.6711 159.786 44.1558 158.293 44.4328C156.8 44.7098 155.231 44.8483 153.584 44.8483C152.645 44.8483 151.537 44.8022 150.26 44.7098C148.998 44.6329 147.936 44.4174 147.075 44.0635C146.875 43.9866 146.713 43.8942 146.59 43.7865C146.482 43.6788 146.428 43.5018 146.428 43.2556C146.428 43.1787 146.444 43.0786 146.475 42.9555C146.628 42.1399 146.782 41.332 146.936 40.5318C147.09 39.7316 147.236 38.9314 147.375 38.1312C147.436 37.7465 147.482 37.3618 147.513 36.9771C147.559 36.577 147.636 36.1922 147.744 35.8229C147.79 35.669 147.867 35.4844 147.975 35.2689C148.098 35.0535 148.26 34.9458 148.46 34.9458C148.583 34.9458 148.698 34.9612 148.806 34.9919C148.929 35.0073 149.044 35.0304 149.152 35.0612C149.829 35.2151 150.491 35.3305 151.137 35.4074C151.784 35.4844 152.453 35.5228 153.145 35.5228C153.499 35.5228 153.838 35.4767 154.161 35.3843C154.484 35.292 154.646 35.015 154.646 34.5534C154.646 34.0917 154.53 33.6608 154.3 33.2607C154.1 32.9068 153.861 32.5682 153.584 32.2451C153.322 31.9065 153.045 31.5911 152.753 31.2987C152.384 30.914 151.991 30.56 151.576 30.2369C151.16 29.9137 150.745 29.5829 150.329 29.2443C149.021 28.2287 148.19 27.2053 147.836 26.1743C147.482 25.1279 147.29 23.7891 147.259 22.1579V21.9501C147.259 19.6111 147.744 17.7644 148.714 16.4102C149.683 15.0407 151.006 14.0635 152.684 13.4787C154.361 12.8939 156.254 12.6016 158.362 12.6016Z" fill="white"/>
<path d="M133.103 13.7095C133.103 13.0786 133.418 12.7631 134.049 12.7631H142.682C143.313 12.7631 143.629 13.0786 143.629 13.7095C143.629 15.9409 143.605 18.1799 143.559 20.4267C143.513 22.658 143.49 24.897 143.49 27.1438C143.49 29.8829 143.521 32.6144 143.582 35.3382C143.644 38.062 143.675 40.7934 143.675 43.5326C143.675 44.1635 143.359 44.479 142.728 44.479H134.003C133.387 44.479 133.08 44.1635 133.08 43.5326C133.08 40.7934 133.103 38.062 133.149 35.3382C133.21 32.6144 133.241 29.8829 133.241 27.1438C133.241 24.897 133.218 22.658 133.172 20.4267C133.126 18.1799 133.103 15.9409 133.103 13.7095Z" fill="white"/>
<path d="M168.75 44.479C168.134 44.479 167.827 44.1481 167.827 43.4864C167.827 42.6708 167.865 41.8552 167.942 41.0396C168.034 40.2087 168.096 39.3931 168.127 38.5929C168.204 36.8078 168.265 35.015 168.311 33.2146C168.357 31.4141 168.381 29.6213 168.381 27.8363C168.381 25.5587 168.319 23.2889 168.196 21.0268C168.073 18.7647 167.988 16.5026 167.942 14.2404V13.7557C167.942 13.6018 167.965 13.4018 168.011 13.1556C168.057 12.9093 168.188 12.7862 168.404 12.7862C168.604 12.7862 168.811 12.8863 169.027 13.0863C169.258 13.2864 169.435 13.4479 169.558 13.571C171.358 15.3561 173.105 17.2027 174.798 19.1109C176.49 21.0037 178.175 22.9042 179.853 24.8124C180.653 25.7049 181.445 26.6206 182.23 27.5593C183.03 28.498 183.854 29.3905 184.7 30.2369C184.731 30.2676 184.777 30.2984 184.839 30.3292H185.093C185.093 30.3292 185.431 29.9753 186.108 29.2674C186.801 28.5441 187.693 27.6054 188.786 26.4513C189.878 25.2971 191.063 24.0507 192.341 22.7119C193.618 21.373 194.864 20.065 196.08 18.7878C197.311 17.5105 198.388 16.3948 199.312 15.4408C200.25 14.4867 200.912 13.825 201.297 13.4556C201.451 13.3017 201.604 13.1632 201.758 13.0401C201.912 12.917 202.089 12.8247 202.289 12.7631C202.32 12.7631 202.343 12.7631 202.358 12.7631C202.389 12.7478 202.412 12.7401 202.428 12.7401C202.689 12.7401 202.828 12.8863 202.843 13.1786C202.874 13.471 202.889 13.7095 202.889 13.8942V14.1712C202.843 16.264 202.759 18.3569 202.635 20.4497C202.528 22.5426 202.474 24.6431 202.474 26.7514C202.474 28.6288 202.489 30.5139 202.52 32.4067C202.566 34.2994 202.635 36.1846 202.728 38.062C202.774 38.9853 202.836 39.9163 202.912 40.855C203.005 41.7783 203.051 42.7016 203.051 43.6249C203.051 44.1943 202.751 44.479 202.151 44.479H193.402C192.771 44.479 192.448 44.1712 192.433 43.5557C192.433 43.4172 192.425 43.1325 192.41 42.7016C192.41 42.2707 192.402 41.8014 192.387 41.2936C192.387 40.7703 192.379 40.3087 192.364 39.9086C192.348 39.5085 192.325 39.2777 192.294 39.2161L192.202 39.1699C192.14 39.1699 191.917 39.37 191.533 39.7701C191.148 40.1548 190.671 40.6472 190.101 41.2474C189.548 41.8475 188.978 42.4631 188.393 43.094C187.824 43.725 187.316 44.2789 186.87 44.756C186.424 45.233 186.131 45.5408 185.993 45.6793C185.9 45.7716 185.8 45.8563 185.693 45.9332C185.585 46.0102 185.462 46.0486 185.323 46.0486C185.185 46.0486 185.062 46.0102 184.954 45.9332C184.862 45.8717 184.762 45.7947 184.654 45.7024C184.5 45.5639 184.192 45.2715 183.731 44.8252C183.284 44.379 182.761 43.8634 182.161 43.2787C181.576 42.6785 180.999 42.1015 180.43 41.5475C179.86 40.9781 179.368 40.5087 178.952 40.1394C178.552 39.7701 178.322 39.5854 178.26 39.5854C178.214 39.5854 178.183 39.6393 178.168 39.747C178.152 39.8393 178.145 39.9009 178.145 39.9317L178.052 43.5557C178.037 44.1712 177.714 44.479 177.083 44.479H168.75Z" fill="white"/>
<path d="M34.8945 13.7095C34.8945 13.0786 35.2099 12.7631 35.8409 12.7631H44.4739C45.1048 12.7631 45.4202 13.0786 45.4202 13.7095C45.4202 15.9409 45.3972 18.1799 45.351 20.4267C45.3048 22.658 45.2817 24.897 45.2817 27.1438C45.2817 29.8829 45.3125 32.6144 45.3741 35.3382C45.4356 38.062 45.4664 40.7934 45.4664 43.5326C45.4664 44.1635 45.1509 44.479 44.52 44.479H35.7947C35.1791 44.479 34.8714 44.1635 34.8714 43.5326C34.8714 40.7934 34.8945 38.062 34.9406 35.3382C35.0022 32.6144 35.033 29.8829 35.033 27.1438C35.033 24.897 35.0099 22.658 34.9637 20.4267C34.9175 18.1799 34.8945 15.9409 34.8945 13.7095Z" stroke="#6B72FF" stroke-width="0.545466" mask="url(#path-1-inside-1_1893_4552)"/>
<path d="M15.1824 12.7631C17.1676 12.7631 19.0373 12.9555 20.7916 13.3402C22.5612 13.7095 24.1232 14.3405 25.4774 15.233C26.847 16.1102 27.9165 17.3028 28.6859 18.8109C29.4707 20.3189 29.8631 22.204 29.8631 24.4662V24.6508C29.8477 26.4974 29.5169 28.2517 28.8706 29.9137C28.2242 31.5603 27.147 32.9683 25.639 34.1379C25.3466 34.3687 25.0465 34.5688 24.7387 34.738C24.431 34.9073 24.1232 35.092 23.8154 35.292C23.7846 35.3074 23.7385 35.3459 23.6769 35.4074L23.6538 35.4767C23.6538 35.5536 23.8539 35.8306 24.254 36.3077C24.6695 36.7847 25.185 37.3618 25.8005 38.0389C26.4315 38.7006 27.0701 39.3777 27.7164 40.0702C28.3627 40.7473 28.9321 41.3474 29.4246 41.8706C29.9324 42.3785 30.2632 42.717 30.4171 42.8863C30.5402 43.0248 30.6787 43.1787 30.8326 43.3479C30.9865 43.5172 31.0634 43.7096 31.0634 43.925C31.0634 44.202 30.8942 44.3636 30.5556 44.4097C30.2171 44.4559 29.9555 44.479 29.7708 44.479H20.0529C19.7759 44.479 19.522 44.3482 19.2912 44.0866C19.1373 43.9173 18.868 43.5557 18.4833 43.0017C18.1139 42.4323 17.6831 41.786 17.1906 41.0627C16.7136 40.3395 16.2442 39.6316 15.7826 38.9391C15.3209 38.2466 14.9208 37.6772 14.5823 37.231C14.2437 36.7693 14.036 36.5385 13.959 36.5385C13.7282 36.5385 13.5974 36.6308 13.5666 36.8155C13.5358 37.0925 13.5205 37.3849 13.5205 37.6926C13.5205 37.985 13.5205 38.2697 13.5205 38.5467C13.5205 39.3777 13.5282 40.2164 13.5435 41.0627C13.5743 41.8937 13.5512 42.717 13.4743 43.5326C13.4435 43.8558 13.3666 44.0943 13.2435 44.2482C13.1204 44.402 12.8818 44.479 12.5279 44.479H3.82566C3.21012 44.479 2.90234 44.1558 2.90234 43.5095C2.90234 42.6785 2.93312 41.8399 2.99468 40.9935C3.05623 40.1471 3.1024 39.3084 3.13317 38.4774C3.21012 36.7385 3.26398 34.9996 3.29475 33.2607C3.34092 31.5064 3.364 29.7521 3.364 27.9978C3.364 26.3974 3.34861 24.7893 3.31784 23.1735C3.28706 21.5577 3.24089 19.9496 3.17934 18.3492C3.16395 17.5798 3.12548 16.8103 3.06392 16.0409C3.01776 15.2561 2.99468 14.4867 2.99468 13.7326C2.99468 13.0863 3.30245 12.7631 3.91799 12.7631H15.1824ZM16.2673 28.5518C17.1137 28.5518 17.7446 28.3595 18.1601 27.9747C18.5756 27.5746 18.8526 27.0591 18.9911 26.4282C19.1296 25.7973 19.1988 25.1356 19.1988 24.4431C19.1988 23.4582 18.9603 22.6965 18.4833 22.1579C18.0216 21.6193 17.283 21.35 16.2673 21.35H13.5666C13.5666 22.5503 13.5666 23.7506 13.5666 24.9509C13.582 26.1512 13.5897 27.3515 13.5897 28.5518H16.2673Z" stroke="#6B72FF" stroke-width="0.545466" mask="url(#path-1-inside-1_1893_4552)"/>
<path d="M74.4137 13.7326C74.4137 13.0863 74.7214 12.7631 75.337 12.7631H96.7117C97.3273 12.7631 97.635 13.0863 97.635 13.7326C97.635 14.4867 97.612 15.2484 97.5658 16.0178C97.535 16.7719 97.5042 17.5336 97.4735 18.303C97.4581 18.9186 97.4427 19.5341 97.4273 20.1497C97.4273 20.7498 97.4119 21.3577 97.3811 21.9732C97.3657 22.6041 97.0503 22.9196 96.4347 22.9196H91.1718C90.9718 22.9196 90.8718 23.0196 90.8718 23.2197V26.8206C90.8718 29.6059 90.9025 32.3913 90.9641 35.1766C91.0256 37.9619 91.0564 40.7473 91.0564 43.5326C91.0564 44.1635 90.741 44.479 90.11 44.479H81.3847C80.7845 44.479 80.4845 44.1635 80.4845 43.5326C80.4845 40.9935 80.5075 38.4544 80.5537 35.9153C80.5999 33.3761 80.623 30.837 80.623 28.2979V23.2197C80.623 23.0196 80.5306 22.9196 80.346 22.9196H75.614C74.9984 22.9196 74.683 22.6041 74.6676 21.9732C74.6368 21.3577 74.6214 20.7498 74.6214 20.1497C74.6214 19.5341 74.606 18.9186 74.5753 18.303C74.5599 17.5336 74.5291 16.7719 74.4829 16.0178C74.4368 15.2484 74.4137 14.4867 74.4137 13.7326Z" stroke="#6B72FF" stroke-width="0.545466" mask="url(#path-1-inside-1_1893_4552)"/>
<path d="M109.858 43.5095C109.858 42.5093 109.874 41.509 109.905 40.5087C109.935 39.5085 109.951 38.5159 109.951 37.5311C109.951 37.3926 109.951 37.1156 109.951 36.7001C109.951 36.2692 109.935 36.0076 109.905 35.9153C109.843 35.669 109.751 35.4228 109.628 35.1766C109.504 34.9304 109.389 34.6842 109.281 34.4379C108.989 33.7455 108.689 33.0607 108.381 32.3836C108.073 31.6911 107.766 31.0063 107.458 30.3292C106.242 27.6054 105.003 24.897 103.741 22.204C102.495 19.4956 101.21 16.8026 99.8866 14.125C99.825 14.0019 99.7711 13.8865 99.725 13.7788C99.6788 13.6557 99.6557 13.5326 99.6557 13.4095C99.6557 13.1171 99.7711 12.9401 100.002 12.8786C100.248 12.8016 100.479 12.7631 100.694 12.7631H111.52C111.782 12.7631 111.974 12.8247 112.097 12.9478C112.22 13.0555 112.328 13.2248 112.421 13.4556C112.605 13.9019 112.751 14.3789 112.859 14.8868C112.982 15.3792 113.105 15.8639 113.228 16.341C113.459 17.172 113.69 18.0106 113.921 18.857C114.152 19.688 114.383 20.519 114.613 21.35C114.706 21.6885 114.806 22.0348 114.913 22.3887C115.021 22.7426 115.114 23.0966 115.19 23.4505C115.221 23.5274 115.237 23.5967 115.237 23.6583C115.252 23.7198 115.291 23.7891 115.352 23.866L115.444 23.8891C115.537 23.9045 115.598 23.8506 115.629 23.7275C115.675 23.6044 115.706 23.5121 115.721 23.4505C116.045 22.2656 116.352 21.0807 116.645 19.8957C116.952 18.7108 117.26 17.5259 117.568 16.341C117.691 15.8639 117.799 15.3792 117.891 14.8868C117.999 14.3789 118.145 13.9019 118.33 13.4556C118.514 12.994 118.822 12.7631 119.253 12.7631H130.079C130.294 12.7631 130.518 12.8016 130.748 12.8786C130.995 12.9555 131.118 13.1325 131.118 13.4095C131.118 13.548 131.087 13.6788 131.025 13.8019C130.979 13.9096 130.925 14.025 130.864 14.1481C129.556 16.7026 128.263 19.2725 126.986 21.8578C125.709 24.4277 124.462 27.0207 123.246 29.6367C123.154 29.8368 122.946 30.2676 122.623 30.9294C122.315 31.5757 121.977 32.2835 121.608 33.053C121.254 33.8224 120.946 34.5072 120.684 35.1073C120.423 35.7075 120.292 36.0614 120.292 36.1692C120.292 37.3849 120.315 38.6082 120.361 39.8393C120.407 41.0704 120.43 42.3015 120.43 43.5326C120.43 44.1635 120.115 44.479 119.484 44.479H110.782C110.166 44.479 109.858 44.1558 109.858 43.5095Z" stroke="#6B72FF" stroke-width="0.545466" mask="url(#path-1-inside-1_1893_4552)"/>
<path d="M47.8813 13.7326C47.8813 13.0863 48.1891 12.7631 48.8046 12.7631H70.1793C70.7949 12.7631 71.1026 13.0863 71.1026 13.7326C71.1026 14.4867 71.0796 15.2484 71.0334 16.0178C71.0026 16.7719 70.9718 17.5336 70.9411 18.303C70.9257 18.9186 70.9103 19.5341 70.8949 20.1497C70.8949 20.7498 70.8795 21.3577 70.8487 21.9732C70.8334 22.6041 70.5179 22.9196 69.9023 22.9196H64.6394C64.4394 22.9196 64.3394 23.0196 64.3394 23.2197V26.8206C64.3394 29.6059 64.3701 32.3913 64.4317 35.1766C64.4933 37.9619 64.524 40.7473 64.524 43.5326C64.524 44.1635 64.2086 44.479 63.5776 44.479H54.8523C54.2522 44.479 53.9521 44.1635 53.9521 43.5326C53.9521 40.9935 53.9752 38.4544 54.0213 35.9153C54.0675 33.3761 54.0906 30.837 54.0906 28.2979V23.2197C54.0906 23.0196 53.9982 22.9196 53.8136 22.9196H49.0816C48.4661 22.9196 48.1506 22.6041 48.1352 21.9732C48.1044 21.3577 48.089 20.7498 48.089 20.1497C48.089 19.5341 48.0736 18.9186 48.0429 18.303C48.0275 17.5336 47.9967 16.7719 47.9505 16.0178C47.9044 15.2484 47.8813 14.4867 47.8813 13.7326Z" stroke="#6B72FF" stroke-width="0.545466" mask="url(#path-1-inside-1_1893_4552)"/>
<path d="M158.362 12.6016C158.655 12.6016 159.155 12.6246 159.863 12.6708C160.586 12.7016 161.348 12.7785 162.148 12.9016C162.963 13.0094 163.656 13.1863 164.225 13.4325C164.81 13.6634 165.102 13.9788 165.102 14.3789C165.102 14.579 165.041 15.0022 164.918 15.6485C164.795 16.2948 164.641 17.0181 164.456 17.8183C164.287 18.6185 164.125 19.3648 163.971 20.0573C163.817 20.7344 163.702 21.2115 163.625 21.4885C163.564 21.7347 163.487 21.9501 163.394 22.1348C163.302 22.3041 163.102 22.3887 162.794 22.3887C162.686 22.3887 162.586 22.3733 162.494 22.3425C162.402 22.3118 162.309 22.2887 162.217 22.2733C161.54 22.104 160.871 22.0194 160.209 22.0194C159.901 22.0194 159.555 22.0655 159.17 22.1579C158.801 22.2502 158.616 22.5118 158.616 22.9427C158.616 23.4043 158.77 23.8814 159.078 24.3738C159.401 24.8663 159.778 25.3279 160.209 25.7588C160.64 26.1897 161.024 26.5436 161.363 26.8206C162.456 27.667 163.34 28.4133 164.018 29.0596C164.71 29.706 165.218 30.46 165.541 31.3218C165.88 32.1681 166.049 33.33 166.049 34.8073V35.3382C166.049 37.2617 165.71 38.8468 165.033 40.0932C164.371 41.3243 163.456 42.2861 162.286 42.9786C161.117 43.6711 159.786 44.1558 158.293 44.4328C156.8 44.7098 155.231 44.8483 153.584 44.8483C152.645 44.8483 151.537 44.8022 150.26 44.7098C148.998 44.6329 147.936 44.4174 147.075 44.0635C146.875 43.9866 146.713 43.8942 146.59 43.7865C146.482 43.6788 146.428 43.5018 146.428 43.2556C146.428 43.1787 146.444 43.0786 146.475 42.9555C146.628 42.1399 146.782 41.332 146.936 40.5318C147.09 39.7316 147.236 38.9314 147.375 38.1312C147.436 37.7465 147.482 37.3618 147.513 36.9771C147.559 36.577 147.636 36.1922 147.744 35.8229C147.79 35.669 147.867 35.4844 147.975 35.2689C148.098 35.0535 148.26 34.9458 148.46 34.9458C148.583 34.9458 148.698 34.9612 148.806 34.9919C148.929 35.0073 149.044 35.0304 149.152 35.0612C149.829 35.2151 150.491 35.3305 151.137 35.4074C151.784 35.4844 152.453 35.5228 153.145 35.5228C153.499 35.5228 153.838 35.4767 154.161 35.3843C154.484 35.292 154.646 35.015 154.646 34.5534C154.646 34.0917 154.53 33.6608 154.3 33.2607C154.1 32.9068 153.861 32.5682 153.584 32.2451C153.322 31.9065 153.045 31.5911 152.753 31.2987C152.384 30.914 151.991 30.56 151.576 30.2369C151.16 29.9137 150.745 29.5829 150.329 29.2443C149.021 28.2287 148.19 27.2053 147.836 26.1743C147.482 25.1279 147.29 23.7891 147.259 22.1579V21.9501C147.259 19.6111 147.744 17.7644 148.714 16.4102C149.683 15.0407 151.006 14.0635 152.684 13.4787C154.361 12.8939 156.254 12.6016 158.362 12.6016Z" stroke="#6B72FF" stroke-width="0.545466" mask="url(#path-1-inside-1_1893_4552)"/>
<path d="M133.103 13.7095C133.103 13.0786 133.418 12.7631 134.049 12.7631H142.682C143.313 12.7631 143.629 13.0786 143.629 13.7095C143.629 15.9409 143.605 18.1799 143.559 20.4267C143.513 22.658 143.49 24.897 143.49 27.1438C143.49 29.8829 143.521 32.6144 143.582 35.3382C143.644 38.062 143.675 40.7934 143.675 43.5326C143.675 44.1635 143.359 44.479 142.728 44.479H134.003C133.387 44.479 133.08 44.1635 133.08 43.5326C133.08 40.7934 133.103 38.062 133.149 35.3382C133.21 32.6144 133.241 29.8829 133.241 27.1438C133.241 24.897 133.218 22.658 133.172 20.4267C133.126 18.1799 133.103 15.9409 133.103 13.7095Z" stroke="#6B72FF" stroke-width="0.545466" mask="url(#path-1-inside-1_1893_4552)"/>
<path d="M168.75 44.479C168.134 44.479 167.827 44.1481 167.827 43.4864C167.827 42.6708 167.865 41.8552 167.942 41.0396C168.034 40.2087 168.096 39.3931 168.127 38.5929C168.204 36.8078 168.265 35.015 168.311 33.2146C168.357 31.4141 168.381 29.6213 168.381 27.8363C168.381 25.5587 168.319 23.2889 168.196 21.0268C168.073 18.7647 167.988 16.5026 167.942 14.2404V13.7557C167.942 13.6018 167.965 13.4018 168.011 13.1556C168.057 12.9093 168.188 12.7862 168.404 12.7862C168.604 12.7862 168.811 12.8863 169.027 13.0863C169.258 13.2864 169.435 13.4479 169.558 13.571C171.358 15.3561 173.105 17.2027 174.798 19.1109C176.49 21.0037 178.175 22.9042 179.853 24.8124C180.653 25.7049 181.445 26.6206 182.23 27.5593C183.03 28.498 183.854 29.3905 184.7 30.2369C184.731 30.2676 184.777 30.2984 184.839 30.3292H185.093C185.093 30.3292 185.431 29.9753 186.108 29.2674C186.801 28.5441 187.693 27.6054 188.786 26.4513C189.878 25.2971 191.063 24.0507 192.341 22.7119C193.618 21.373 194.864 20.065 196.08 18.7878C197.311 17.5105 198.388 16.3948 199.312 15.4408C200.25 14.4867 200.912 13.825 201.297 13.4556C201.451 13.3017 201.604 13.1632 201.758 13.0401C201.912 12.917 202.089 12.8247 202.289 12.7631C202.32 12.7631 202.343 12.7631 202.358 12.7631C202.389 12.7478 202.412 12.7401 202.428 12.7401C202.689 12.7401 202.828 12.8863 202.843 13.1786C202.874 13.471 202.889 13.7095 202.889 13.8942V14.1712C202.843 16.264 202.759 18.3569 202.635 20.4497C202.528 22.5426 202.474 24.6431 202.474 26.7514C202.474 28.6288 202.489 30.5139 202.52 32.4067C202.566 34.2994 202.635 36.1846 202.728 38.062C202.774 38.9853 202.836 39.9163 202.912 40.855C203.005 41.7783 203.051 42.7016 203.051 43.6249C203.051 44.1943 202.751 44.479 202.151 44.479H193.402C192.771 44.479 192.448 44.1712 192.433 43.5557C192.433 43.4172 192.425 43.1325 192.41 42.7016C192.41 42.2707 192.402 41.8014 192.387 41.2936C192.387 40.7703 192.379 40.3087 192.364 39.9086C192.348 39.5085 192.325 39.2777 192.294 39.2161L192.202 39.1699C192.14 39.1699 191.917 39.37 191.533 39.7701C191.148 40.1548 190.671 40.6472 190.101 41.2474C189.548 41.8475 188.978 42.4631 188.393 43.094C187.824 43.725 187.316 44.2789 186.87 44.756C186.424 45.233 186.131 45.5408 185.993 45.6793C185.9 45.7716 185.8 45.8563 185.693 45.9332C185.585 46.0102 185.462 46.0486 185.323 46.0486C185.185 46.0486 185.062 46.0102 184.954 45.9332C184.862 45.8717 184.762 45.7947 184.654 45.7024C184.5 45.5639 184.192 45.2715 183.731 44.8252C183.284 44.379 182.761 43.8634 182.161 43.2787C181.576 42.6785 180.999 42.1015 180.43 41.5475C179.86 40.9781 179.368 40.5087 178.952 40.1394C178.552 39.7701 178.322 39.5854 178.26 39.5854C178.214 39.5854 178.183 39.6393 178.168 39.747C178.152 39.8393 178.145 39.9009 178.145 39.9317L178.052 43.5557C178.037 44.1712 177.714 44.479 177.083 44.479H168.75Z" stroke="#6B72FF" stroke-width="0.545466" mask="url(#path-1-inside-1_1893_4552)"/>
<g clip-path="url(#clip0_1893_4552)">
<g filter="url(#filter0_d_1893_4552)">
<path d="M211.496 24.1897C211.457 24.3028 211.487 24.4279 211.571 24.5124C211.656 24.5968 211.781 24.626 211.894 24.5877L218.25 22.4329C220.385 23.4931 222.826 23.7726 225.148 23.2202C227.513 22.6575 229.599 21.2686 231.031 19.3037C232.462 17.3388 233.145 14.9272 232.956 12.5034C232.767 10.0796 231.719 7.80303 229.999 6.08395C228.28 4.36486 226.004 3.3163 223.58 3.12721C221.156 2.93812 218.745 3.62094 216.78 5.05263C214.815 6.48432 213.426 8.57072 212.863 10.9359C212.311 13.2576 212.59 15.6981 213.65 17.8331L211.496 24.1897Z" fill="white" stroke="url(#paint0_linear_1893_4552)" stroke-width="0.627719" stroke-linecap="round" stroke-linejoin="round"/>
<mask id="path-3-outside-2_1893_4552" maskUnits="userSpaceOnUse" x="216.785" y="8.44531" width="12" height="11" fill="black">
<rect fill="white" x="216.785" y="8.44531" width="12" height="11"/>
<path d="M226.955 10.2304C226.442 9.72716 225.751 9.44531 225.033 9.44531C224.314 9.44531 223.624 9.72716 223.11 10.2304L222.781 10.6698L222.396 10.3402C222.144 10.0676 221.838 9.85079 221.498 9.70366C221.157 9.55653 220.789 9.48237 220.418 9.48593C220.047 9.4895 219.681 9.57072 219.343 9.72437C219.005 9.87802 218.703 10.1007 218.457 10.3781C218.21 10.6554 218.024 10.9813 217.911 11.3348C217.798 11.6883 217.761 12.0615 217.801 12.4305C217.841 12.7994 217.957 13.1559 218.143 13.477C218.329 13.7981 218.581 14.0767 218.881 14.2948L222.836 18.1396L226.79 14.2948C228.108 12.9766 227.999 11.3289 227.01 10.2304"/>
</mask>
<path d="M226.955 10.2304C226.442 9.72716 225.751 9.44531 225.033 9.44531C224.314 9.44531 223.624 9.72716 223.11 10.2304L222.781 10.6698L222.396 10.3402C222.144 10.0676 221.838 9.85079 221.498 9.70366C221.157 9.55653 220.789 9.48237 220.418 9.48593C220.047 9.4895 219.681 9.57072 219.343 9.72437C219.005 9.87802 218.703 10.1007 218.457 10.3781C218.21 10.6554 218.024 10.9813 217.911 11.3348C217.798 11.6883 217.761 12.0615 217.801 12.4305C217.841 12.7994 217.957 13.1559 218.143 13.477C218.329 13.7981 218.581 14.0767 218.881 14.2948L222.836 18.1396L226.79 14.2948C228.108 12.9766 227.999 11.3289 227.01 10.2304" fill="url(#paint1_linear_1893_4552)"/>
<path d="M226.691 10.4993C226.84 10.6449 227.078 10.6425 227.224 10.494C227.37 10.3454 227.367 10.107 227.219 9.96138L226.691 10.4993ZM225.033 9.44531V9.06868V9.44531ZM223.11 10.2304L222.847 9.96138C222.833 9.97474 222.82 9.98911 222.809 10.0044L223.11 10.2304ZM222.781 10.6698L222.536 10.9557C222.615 11.0235 222.718 11.0555 222.822 11.0441C222.925 11.0328 223.019 10.9791 223.082 10.8957L222.781 10.6698ZM222.396 10.3402L222.12 10.5958C222.129 10.6065 222.14 10.6167 222.151 10.6262L222.396 10.3402ZM218.881 14.2948L219.143 14.0248C219.131 14.0123 219.117 14.0007 219.102 13.9901L218.881 14.2948ZM222.836 18.1396L222.573 18.4096C222.719 18.5518 222.952 18.5518 223.098 18.4096L222.836 18.1396ZM226.79 14.2948L227.053 14.5649L227.056 14.5611L226.79 14.2948ZM227.29 9.9784C227.151 9.82379 226.913 9.81126 226.758 9.9504C226.603 10.0896 226.591 10.3277 226.73 10.4823L227.29 9.9784ZM227.219 9.96138C226.635 9.38918 225.85 9.06868 225.033 9.06868V9.82194C225.653 9.82194 226.248 10.0651 226.691 10.4993L227.219 9.96138ZM225.033 9.06868C224.215 9.06868 223.43 9.38918 222.847 9.96138L223.374 10.4993C223.817 10.0651 224.412 9.82194 225.033 9.82194V9.06868ZM222.809 10.0044L222.479 10.4438L223.082 10.8957L223.411 10.4563L222.809 10.0044ZM223.026 10.3838L222.641 10.0542L222.151 10.6262L222.536 10.9557L223.026 10.3838ZM222.673 10.0846C222.385 9.77342 222.036 9.52587 221.647 9.3579L221.348 10.0494C221.641 10.1757 221.903 10.3618 222.12 10.5958L222.673 10.0846ZM221.647 9.3579C221.258 9.18992 220.838 9.10525 220.414 9.10932L220.422 9.86255C220.74 9.85948 221.056 9.92315 221.348 10.0494L221.647 9.3579ZM220.414 9.10932C219.991 9.11339 219.573 9.20612 219.187 9.38154L219.499 10.0672C219.789 9.93532 220.103 9.86561 220.422 9.86255L220.414 9.10932ZM219.187 9.38154C218.801 9.55696 218.457 9.81118 218.175 10.1278L218.738 10.6283C218.95 10.3902 219.209 10.1991 219.499 10.0672L219.187 9.38154ZM218.175 10.1278C217.894 10.4445 217.682 10.8166 217.553 11.2202L218.27 11.4495C218.367 11.1461 218.527 10.8664 218.738 10.6283L218.175 10.1278ZM217.553 11.2202C217.424 11.6237 217.381 12.0498 217.426 12.471L218.175 12.3899C218.141 12.0733 218.173 11.7529 218.27 11.4495L217.553 11.2202ZM217.426 12.471C217.472 12.8923 217.605 13.2993 217.818 13.6658L218.469 13.2882C218.31 13.0126 218.209 12.7066 218.175 12.3899L217.426 12.471ZM217.818 13.6658C218.03 14.0324 218.317 14.3505 218.66 14.5995L219.102 13.9901C218.845 13.8029 218.629 13.5638 218.469 13.2882L217.818 13.6658ZM218.618 14.5649L222.573 18.4096L223.098 17.8696L219.143 14.0248L218.618 14.5649ZM223.098 18.4096L227.053 14.5649L226.528 14.0248L222.573 17.8696L223.098 18.4096ZM227.056 14.5611C227.777 13.8403 228.126 13.0084 228.142 12.1874C228.157 11.3696 227.842 10.5923 227.29 9.9784L226.73 10.4823C227.166 10.9669 227.4 11.5627 227.389 12.173C227.377 12.78 227.121 13.4312 226.524 14.0285L227.056 14.5611Z" fill="url(#paint2_linear_1893_4552)" mask="url(#path-3-outside-2_1893_4552)"/>
</g>
</g>
<defs>
<filter id="filter0_d_1893_4552" x="209.096" y="1.74931" width="26.2723" height="26.2703" filterUnits="userSpaceOnUse" color-interpolation-filters="sRGB">
<feFlood flood-opacity="0" result="BackgroundImageFix"/>
<feColorMatrix in="SourceAlpha" type="matrix" values="0 0 0 0 0 0 0 0 0 0 0 0 0 0 0 0 0 0 127 0" result="hardAlpha"/>
<feOffset dy="1.03389"/>
<feGaussianBlur stdDeviation="1.03389"/>
<feComposite in2="hardAlpha" operator="out"/>
<feColorMatrix type="matrix" values="0 0 0 0 0 0 0 0 0 0 0 0 0 0 0 0 0 0 0.1 0"/>
<feBlend mode="normal" in2="BackgroundImageFix" result="effect1_dropShadow_1893_4552"/>
<feBlend mode="normal" in="SourceGraphic" in2="effect1_dropShadow_1893_4552" result="shape"/>
</filter>
<linearGradient id="paint0_linear_1893_4552" x1="213.048" y1="3.26181" x2="229.997" y2="23.0349" gradientUnits="userSpaceOnUse">
<stop stop-color="white" stop-opacity="0.9"/>
<stop offset="1" stop-color="white" stop-opacity="0.55"/>
</linearGradient>
<linearGradient id="paint1_linear_1893_4552" x1="217.297" y1="7.27174" x2="228.366" y2="7.49382" gradientUnits="userSpaceOnUse">
<stop stop-color="#FFD382"/>
<stop offset="0.5" stop-color="#FFCF4B"/>
<stop offset="1" stop-color="#FFD280"/>
</linearGradient>
<linearGradient id="paint2_linear_1893_4552" x1="217.297" y1="7.27174" x2="228.366" y2="7.49382" gradientUnits="userSpaceOnUse">
<stop stop-color="#FFE0A7"/>
<stop offset="0.5" stop-color="#FFDD7F"/>
<stop offset="1" stop-color="#FFE1A9"/>
</linearGradient>
<clipPath id="clip0_1893_4552">
<rect width="26.3642" height="26.3642" fill="white" transform="translate(209.594 0.123047)"/>
</clipPath>
</defs>
</svg>
